<svg width="3514" height="972" viewBox="0 0 3514 972" fill="none" xmlns="http://www.w3.org/2000/svg">
<g clip-path="url(#clip0_372_37)">
<path d="M3401.9 251.9C3326.9 167 3223.9 120.2 3111.9 120.1H2679L2678.1 268.4L2563.7 120.2L1481.4 121.7L1566.4 0H1109L1005.2 253.1L971.3 205.2L970.5 204.2C947.1 172.6 917 146.6 882.2 128.2L880.2 127.1L878.2 126.1C842.1 109 803.2 100 765.7 100C724.2 100 683.9 109.7 649.3 128C611.8 147.8 581.6 174 559.5 206L402.9 426.8V100H0V971.5L3240.1 971.4L3258 964.3C3287.4 952.5 3310.6 940.6 3330.9 926.8C3354.2 911.4 3375.9 893.7 3395.6 873.8L3396.4 873L3397.2 872.2C3472.4 793.8 3513.8 683.7 3513.8 562.3C3513.6 443.7 3473.9 333.5 3401.9 251.9ZM3368.2 844.6L3367.8 845.1L3367.3 845.6C3349.5 863.6 3329.9 879.7 3308.7 893.6C3290.8 905.8 3269.9 916.6 3243.1 927.3L3232.4 931.6L40 931.5V140H362.9V552.2L592.3 229C610.8 202.3 636.2 180.2 668 163.4C696.9 148.1 730.8 140 765.8 140C797.4 140 830.4 147.7 861.2 162.2L862.4 162.8L863.6 163.4C893 179 918.6 201 938.4 227.7L938.7 228.1L1014.7 335.3L1135.7 39.7H1489.5L1404.5 161.5L2543.9 160L2717.2 384.5L2718.6 159.9H3111.8C3212.2 160 3304.5 202 3371.8 278.2C3437.4 352.4 3473.6 453.3 3473.6 562.2C3473.6 673.4 3436.2 773.6 3368.2 844.6Z" fill="white"/>
<path d="M795.9 871.5H100V200H302.9V679H658.8L795.9 871.5Z" fill="white"/>
<path d="M2511.4 677.701L2660.2 871.601H1945.2V220.301H2514.6L2664.2 414.201H2192.4C2182.3 414.201 2172.1 418.001 2163.3 425.601C2155.7 433.201 2150.6 443.301 2150.6 453.501V463.601C2150.6 473.701 2155.7 483.901 2163.3 491.501C2170.9 499.101 2181 502.901 2192.4 502.901H2590.6L2665.4 600.501H2192.4C2182.3 600.501 2172.1 604.301 2163.3 611.901C2159.2 615.301 2156 619.601 2153.8 624.401C2151.6 629.201 2150.5 634.501 2150.6 639.801C2150.6 649.901 2155.7 660.101 2163.3 667.701C2170.9 675.301 2181 679.101 2192.4 679.101L2511.4 677.701Z" fill="white"/>
<path d="M1900.8 704.3V709.4C1899.5 752.5 1881.8 794.3 1850.1 824.7C1818.7 854.8 1776.9 871.6 1733.4 871.6H1074L765.8 438.2L637.8 618.9H389.2L641.6 263.4C655.5 243.1 674.5 227.9 696.1 216.5C717.7 205.1 741.7 200 765.9 200C790.1 200 814.1 206.3 835.7 216.5C857.1 227.9 875.8 243.9 890.2 263.4L1158.2 642L1195.5 694.7L1205.9 709.4H1656.1C1670 709.4 1682.7 704.3 1691.6 694.2C1701.7 684.1 1706.8 671.4 1706.8 658.7C1706.8 644.8 1701.7 632.1 1691.6 623.2C1681.5 613.1 1668.8 608 1656.1 608H1251.8L1330.8 486.3H1635.7C1642.2 486.3 1648.7 485 1654.7 482.5C1661 480 1666.1 476.2 1671.2 471.1C1676.3 466 1680.1 461 1682.6 454.6C1685.1 448.6 1686.4 442.1 1686.4 435.6C1686.4 421.7 1681.3 409 1671.2 400.1C1661.1 390 1648.4 384.9 1635.7 384.9H1396.6L1502.8 221.4H1722C1763.8 221.4 1804.5 237.9 1833.6 267C1862.7 296.1 1879.3 336.7 1879.3 378.5C1879.3 420.3 1862.8 460.9 1833.6 490C1804.4 519.1 1732.1 535.6 1732.1 535.6C1768.9 535.6 1804.4 547 1833.6 569.8C1862.7 591.3 1884.3 623 1894.5 658.5C1898.3 673.9 1900.8 689.1 1900.8 704.3Z" fill="white"/>
<path d="M1191.4 607.8L1232.7 366.3H1066.9L1176.1 100H1374.6L1289.6 221.8H1442.2L1191.4 607.8Z" fill="white"/>
<path d="M3413.6 562.4C3413.6 658.7 3381.9 743.6 3324.8 803.1C3309.6 818.3 3293.1 832.2 3275.3 843.6C3258.8 855 3239.8 863.9 3220.8 871.5H2735.7L2584 673.8L3132 677.6C3203 677.6 3229.7 624.4 3229.7 553.4C3229.7 474.8 3182.8 421.6 3111.8 421.6H2964.7L2968.5 621.8L2775.7 620.5L2778.2 220.1H3111.8C3283 220.3 3413.6 367.3 3413.6 562.4Z" fill="white"/>
</g>
<defs>
<clipPath id="clip0_372_37">
<rect width="3514" height="972" fill="white"/>
</clipPath>
</defs>
</svg>
