<svg width="3569" height="856" viewBox="0 0 3569 856" fill="none" xmlns="http://www.w3.org/2000/svg">
<path d="M755.881 839.936H11V120.476H228.22V633.607H609.113L755.881 839.936Z" fill="white"/>
<path d="M2595.42 632.227L2755.57 839.936H1985.92V142.212H2595.35L2755.5 349.922H2250.54C2239.71 349.922 2228.81 353.993 2219.35 362.136C2211.21 370.279 2205.76 381.113 2205.76 392.016V402.85C2205.76 413.684 2211.21 424.587 2219.35 432.729C2227.5 440.872 2238.33 444.943 2250.54 444.943H2676.77L2756.88 549.488H2250.61C2239.78 549.488 2228.88 553.56 2219.42 561.702C2209.9 569.845 2205.83 580.679 2205.83 591.582C2205.83 602.416 2211.28 613.319 2219.42 621.462C2227.56 629.605 2238.4 633.676 2250.61 633.676L2595.42 632.227Z" fill="white"/>
<path d="M1938.44 660.727C1938.44 662.107 1938.44 664.798 1938.44 666.178C1937.06 712.344 1918.09 757.129 1884.14 789.7C1850.19 822.271 1805.41 839.937 1759.25 839.937H1053.49L723.657 375.731L585.238 571.226H319.165L590.62 188.447C605.525 166.71 625.881 150.425 648.996 138.211C672.043 125.996 697.85 120.545 723.657 120.545C749.464 120.545 775.271 127.308 798.318 138.211C821.364 150.425 841.72 168.09 856.694 188.447L1194.74 666.247H1676.58C1691.48 666.247 1705.08 660.796 1714.6 649.962C1725.43 639.128 1730.89 625.534 1730.89 611.939C1730.89 597.034 1725.43 583.44 1714.6 573.917C1703.77 563.083 1690.17 557.631 1676.58 557.631H1243.59L1292.44 481.586L1327.7 427.278H1654.84C1661.61 427.278 1668.44 425.898 1675.2 423.207C1681.96 420.516 1687.41 416.444 1692.86 410.993C1698.32 405.541 1702.39 400.159 1705.08 393.327C1707.77 386.565 1709.15 379.733 1709.15 372.97C1709.15 358.065 1703.7 344.471 1692.86 334.948C1682.03 324.114 1668.44 318.662 1654.84 318.662H1396.98L1508.28 143.524H1747.17C1791.95 143.524 1835.42 161.19 1866.61 192.381C1897.8 223.571 1915.47 267.045 1915.47 311.831C1915.47 356.616 1897.8 400.09 1866.61 431.281C1835.42 462.472 1758 480.137 1758 480.137C1797.33 480.137 1835.35 492.351 1866.61 516.78C1897.8 539.828 1920.92 573.779 1931.75 611.801C1935.75 628.156 1938.44 644.441 1938.44 660.727Z" fill="white"/>
<path d="M1153.89 16H1343.92L1262.5 132.759H1410.44L1164.79 525.06L1208.19 271.255H1049.42L1153.89 16Z" fill="white"/>
<path d="M3557.72 508.706C3557.72 611.87 3523.77 702.821 3462.71 766.582C3446.42 782.868 3428.76 797.773 3409.78 809.987C3392.12 822.202 3371.76 831.725 3351.41 839.867H2828.85L2665.94 628.087L3256.39 632.158C3332.36 632.158 3360.93 575.159 3360.93 499.114C3360.93 414.926 3310.7 357.927 3234.72 357.927H3077.26L3081.33 572.398L2875.01 571.018L2877.71 142.075H3234.72C3417.93 142.213 3557.72 299.685 3557.72 508.706Z" fill="white"/>
</svg>
