<svg id="Camada_1" data-name="Camada 1" xmlns="http://www.w3.org/2000/svg" xmlns:xlink="http://www.w3.org/1999/xlink" viewBox="0 0 100 100"><defs><style>.cls-1{fill:#fff;}.cls-1,.cls-116,.cls-12{fill-rule:evenodd;}.cls-2{fill:url(#Gradiente_sem_nome_2);}.cls-3{fill:url(#Gradiente_sem_nome_112);}.cls-4{fill:url(#Gradiente_sem_nome_8);}.cls-5{fill:url(#Gradiente_sem_nome_8-2);}.cls-6{fill:url(#Gradiente_sem_nome_8-3);}.cls-7{fill:url(#Gradiente_sem_nome_8-4);}.cls-8{fill:url(#Gradiente_sem_nome_8-5);}.cls-9{fill:url(#Gradiente_sem_nome_8-6);}.cls-10{fill:url(#Gradiente_sem_nome_112-2);}.cls-11{fill:url(#Gradiente_sem_nome_10);}.cls-12{fill:#6e2912;}.cls-13{fill:url(#Gradiente_sem_nome_112-3);}.cls-14{fill:url(#Gradiente_sem_nome_112-4);}.cls-15{fill:url(#Gradiente_sem_nome_112-5);}.cls-16{fill:url(#Gradiente_sem_nome_112-6);}.cls-17{fill:url(#Gradiente_sem_nome_112-7);}.cls-18{fill:url(#Gradiente_sem_nome_112-8);}.cls-19{fill:url(#Gradiente_sem_nome_112-9);}.cls-20{fill:url(#Gradiente_sem_nome_112-10);}.cls-21{fill:url(#Gradiente_sem_nome_112-11);}.cls-22{fill:url(#Gradiente_sem_nome_112-12);}.cls-23{fill:url(#Gradiente_sem_nome_112-13);}.cls-24{fill:url(#Gradiente_sem_nome_112-14);}.cls-25{fill:url(#Gradiente_sem_nome_112-15);}.cls-26{fill:url(#Gradiente_sem_nome_112-16);}.cls-27{fill:url(#Gradiente_sem_nome_112-17);}.cls-28{fill:url(#Gradiente_sem_nome_112-18);}.cls-29{fill:url(#Gradiente_sem_nome_112-19);}.cls-30{fill:url(#Gradiente_sem_nome_112-20);}.cls-31{fill:url(#Gradiente_sem_nome_112-21);}.cls-32{fill:url(#Gradiente_sem_nome_112-22);}.cls-33{fill:url(#Gradiente_sem_nome_112-23);}.cls-34{fill:url(#Gradiente_sem_nome_112-24);}.cls-35{fill:url(#Gradiente_sem_nome_112-25);}.cls-36{fill:url(#Gradiente_sem_nome_112-26);}.cls-37{fill:url(#Gradiente_sem_nome_112-27);}.cls-38{fill:url(#Gradiente_sem_nome_112-28);}.cls-39{fill:url(#Gradiente_sem_nome_112-29);}.cls-40{fill:url(#Gradiente_sem_nome_112-30);}.cls-41{fill:url(#Gradiente_sem_nome_112-31);}.cls-42{fill:url(#Gradiente_sem_nome_112-32);}.cls-43{fill:url(#Gradiente_sem_nome_112-33);}.cls-44{fill:url(#Gradiente_sem_nome_112-34);}.cls-45{fill:url(#Gradiente_sem_nome_112-35);}.cls-46{fill:url(#Gradiente_sem_nome_112-36);}.cls-47{fill:url(#Gradiente_sem_nome_112-37);}.cls-48{fill:url(#Gradiente_sem_nome_112-38);}.cls-49{fill:url(#Gradiente_sem_nome_112-39);}.cls-50{fill:url(#Gradiente_sem_nome_112-40);}.cls-51{fill:url(#Gradiente_sem_nome_112-41);}.cls-52{fill:url(#Gradiente_sem_nome_112-42);}.cls-53{fill:url(#Gradiente_sem_nome_112-43);}.cls-54{fill:url(#Gradiente_sem_nome_112-44);}.cls-55{fill:url(#Gradiente_sem_nome_112-45);}.cls-56{fill:url(#Gradiente_sem_nome_112-46);}.cls-57{fill:url(#Gradiente_sem_nome_112-47);}.cls-58{fill:url(#Gradiente_sem_nome_112-48);}.cls-59{fill:url(#Gradiente_sem_nome_112-49);}.cls-60{fill:url(#Gradiente_sem_nome_112-50);}.cls-61{fill:url(#Gradiente_sem_nome_112-51);}.cls-62{fill:url(#Gradiente_sem_nome_112-52);}.cls-63{fill:url(#Gradiente_sem_nome_112-53);}.cls-64{fill:url(#Gradiente_sem_nome_112-54);}.cls-65{fill:url(#Gradiente_sem_nome_112-55);}.cls-66{fill:url(#Gradiente_sem_nome_112-56);}.cls-67{fill:url(#Gradiente_sem_nome_112-57);}.cls-68{fill:url(#Gradiente_sem_nome_112-58);}.cls-69{fill:url(#Gradiente_sem_nome_112-59);}.cls-70{fill:url(#Gradiente_sem_nome_112-60);}.cls-71{fill:url(#Gradiente_sem_nome_112-61);}.cls-72{fill:url(#Gradiente_sem_nome_112-62);}.cls-73{fill:url(#Gradiente_sem_nome_112-63);}.cls-74{fill:url(#Gradiente_sem_nome_112-64);}.cls-75{fill:url(#Gradiente_sem_nome_112-65);}.cls-76{fill:url(#Gradiente_sem_nome_112-66);}.cls-77{fill:url(#Gradiente_sem_nome_112-67);}.cls-78{fill:url(#Gradiente_sem_nome_112-68);}.cls-79{fill:url(#Gradiente_sem_nome_112-69);}.cls-80{fill:url(#Gradiente_sem_nome_112-70);}.cls-81{fill:url(#Gradiente_sem_nome_112-71);}.cls-82{fill:url(#Gradiente_sem_nome_112-72);}.cls-83{fill:url(#Gradiente_sem_nome_112-73);}.cls-84{fill:url(#Gradiente_sem_nome_112-74);}.cls-85{fill:url(#Gradiente_sem_nome_112-75);}.cls-86{fill:url(#Gradiente_sem_nome_112-76);}.cls-87{fill:url(#Gradiente_sem_nome_112-77);}.cls-88{fill:url(#Gradiente_sem_nome_112-78);}.cls-89{fill:url(#Gradiente_sem_nome_112-79);}.cls-90{fill:url(#Gradiente_sem_nome_112-80);}.cls-91{fill:url(#Gradiente_sem_nome_112-81);}.cls-92{fill:url(#Gradiente_sem_nome_112-82);}.cls-93{fill:url(#Gradiente_sem_nome_112-83);}.cls-94{fill:url(#Gradiente_sem_nome_112-84);}.cls-95{fill:url(#Gradiente_sem_nome_112-85);}.cls-96{fill:url(#Gradiente_sem_nome_112-86);}.cls-97{fill:url(#Gradiente_sem_nome_112-87);}.cls-98{fill:url(#Gradiente_sem_nome_112-88);}.cls-99{fill:url(#Gradiente_sem_nome_112-89);}.cls-100{fill:url(#Gradiente_sem_nome_112-90);}.cls-101{fill:url(#Gradiente_sem_nome_112-91);}.cls-102{fill:url(#Gradiente_sem_nome_112-92);}.cls-103{fill:url(#Gradiente_sem_nome_112-93);}.cls-104{fill:url(#Gradiente_sem_nome_112-94);}.cls-105{fill:url(#Gradiente_sem_nome_112-95);}.cls-106{fill:url(#Gradiente_sem_nome_112-96);}.cls-107{fill:url(#Gradiente_sem_nome_112-97);}.cls-108{fill:url(#Gradiente_sem_nome_112-98);}.cls-109{fill:url(#Gradiente_sem_nome_112-99);}.cls-110{fill:url(#Gradiente_sem_nome_112-100);}.cls-111{fill:url(#Gradiente_sem_nome_112-101);}.cls-112{fill:url(#Gradiente_sem_nome_112-102);}.cls-113{fill:url(#Gradiente_sem_nome_112-103);}.cls-114{fill:url(#Gradiente_sem_nome_112-104);}.cls-115{fill:url(#Gradiente_sem_nome_113);}.cls-116{fill:#6d2912;}</style><linearGradient id="Gradiente_sem_nome_2" x1="-1064.44" y1="-545.08" x2="-1064.44" y2="-544.63" gradientTransform="translate(-239637.25 -122638.94) rotate(180) scale(225.18 225.18)" gradientUnits="userSpaceOnUse"><stop offset="0" stop-color="#cd6f30"/><stop offset="0.09" stop-color="#e2c88e"/><stop offset="0.24" stop-color="#cd6f30"/><stop offset="0.37" stop-color="#9e3d18"/><stop offset="0.6" stop-color="#cd6f30"/><stop offset="0.81" stop-color="#e2c88e"/><stop offset="1" stop-color="#cd6f30"/></linearGradient><linearGradient id="Gradiente_sem_nome_112" x1="-1067.71" y1="-542.24" x2="-1067.71" y2="-541.79" gradientTransform="matrix(-147.84, -153.09, 153.09, -147.84, -74819.49, -243536.08)" gradientUnits="userSpaceOnUse"><stop offset="0" stop-color="#cd6f30"/><stop offset="0.19" stop-color="#e2c88e"/><stop offset="0.41" stop-color="#cd6f30"/><stop offset="0.63" stop-color="#9e3d18"/><stop offset="0.77" stop-color="#cd6f30"/><stop offset="0.91" stop-color="#e2c88e"/><stop offset="1" stop-color="#cd6f30"/></linearGradient><linearGradient id="Gradiente_sem_nome_8" x1="-973.54" y1="23.2" x2="-973.09" y2="23.2" gradientTransform="translate(5135.12 44.55) scale(5.24 1.91)" gradientUnits="userSpaceOnUse"><stop offset="0" stop-color="#b66b1f"/><stop offset="0.03" stop-color="#b66b1f"/><stop offset="0.15" stop-color="#c88d24"/><stop offset="0.39" stop-color="#a4521c"/><stop offset="0.8" stop-color="#d59f26"/><stop offset="1" stop-color="#be7e24"/></linearGradient><linearGradient id="Gradiente_sem_nome_8-2" x1="-994.1" y1="-134.39" x2="-993.66" y2="-134.39" gradientTransform="translate(6284.76 445.01) scale(6.26 2.66)" xlink:href="#Gradiente_sem_nome_8"/><linearGradient id="Gradiente_sem_nome_8-3" x1="-950.36" y1="-266.91" x2="-949.92" y2="-266.91" gradientTransform="translate(4119.54 1142.84) scale(4.31 3.98)" xlink:href="#Gradiente_sem_nome_8"/><linearGradient id="Gradiente_sem_nome_8-4" x1="11.85" y1="66.05" x2="11.85" y2="66.05" gradientTransform="translate(-482.03 -1035.38) scale(0 0.01)" xlink:href="#Gradiente_sem_nome_8"/><linearGradient id="Gradiente_sem_nome_8-5" x1="-993.81" y1="-519.91" x2="-993.36" y2="-519.91" gradientTransform="translate(7210.24 29233.28) scale(7.25 56.13)" xlink:href="#Gradiente_sem_nome_8"/><linearGradient id="Gradiente_sem_nome_8-6" x1="-1060.21" y1="-527.52" x2="-1059.77" y2="-527.52" gradientTransform="translate(193758.49 49188) scale(182.74 93.19)" xlink:href="#Gradiente_sem_nome_8"/><linearGradient id="Gradiente_sem_nome_112-2" x1="-1068.42" y1="-542.65" x2="-1068.42" y2="-542.2" gradientTransform="matrix(-131.79, -131.79, 131.79, -131.79, -69268.17, -212235.25)" xlink:href="#Gradiente_sem_nome_112"/><linearGradient id="Gradiente_sem_nome_10" x1="-1065.07" y1="-533.96" x2="-1065.07" y2="-533.52" gradientTransform="translate(205623.33 -68267.46) rotate(-45) scale(181.84)" gradientUnits="userSpaceOnUse"><stop offset="0" stop-color="#cd6f30"/><stop offset="0.19" stop-color="#e2c88e"/><stop offset="0.41" stop-color="#cd6f30"/><stop offset="0.63" stop-color="#ab411a"/><stop offset="0.77" stop-color="#cd6f30"/><stop offset="0.91" stop-color="#e2c88e"/><stop offset="1" stop-color="#cd6f30"/></linearGradient><linearGradient id="Gradiente_sem_nome_112-3" x1="-1138.91" y1="-661.78" x2="-1138.91" y2="-661.33" gradientTransform="matrix(-5.37, 0.88, -0.47, -10.05, -6385.96, -5620.49)" xlink:href="#Gradiente_sem_nome_112"/><linearGradient id="Gradiente_sem_nome_112-4" x1="-1104.83" y1="-942.78" x2="-1104.83" y2="-942.34" gradientTransform="translate(-12191.28 -2689.44) rotate(180) scale(11.07 2.88)" xlink:href="#Gradiente_sem_nome_112"/><linearGradient id="Gradiente_sem_nome_112-5" x1="-1152.25" y1="-660.43" x2="-1152.25" y2="-659.99" gradientTransform="matrix(-4.59, 1.09, -0.48, -10.4, -5569.56, -5581.53)" xlink:href="#Gradiente_sem_nome_112"/><linearGradient id="Gradiente_sem_nome_112-6" x1="-1104.7" y1="-1014.79" x2="-1104.7" y2="-1014.35" gradientTransform="translate(-12307.31 -2448.19) rotate(180) scale(11.17 2.44)" xlink:href="#Gradiente_sem_nome_112"/><linearGradient id="Gradiente_sem_nome_112-7" x1="-1171.02" y1="-661.26" x2="-1171.02" y2="-660.81" gradientTransform="matrix(-3.83, 1.31, -0.47, -10.68, -4761.02, -5496.04)" xlink:href="#Gradiente_sem_nome_112"/><linearGradient id="Gradiente_sem_nome_112-8" x1="-1104.85" y1="-1036.77" x2="-1104.85" y2="-1036.33" gradientTransform="translate(-12338.64 -2383.71) rotate(180) scale(11.19 2.32)" xlink:href="#Gradiente_sem_nome_112"/><linearGradient id="Gradiente_sem_nome_112-9" x1="-1192.03" y1="-669.21" x2="-1192.03" y2="-668.76" gradientTransform="matrix(-3.12, 1.91, -0.55, -10.82, -4052.02, -4932.68)" xlink:href="#Gradiente_sem_nome_112"/><linearGradient id="Gradiente_sem_nome_112-10" x1="-1105.3" y1="-985.14" x2="-1105.3" y2="-984.69" gradientTransform="translate(-12279.22 -2522.32) rotate(180) scale(11.13 2.59)" xlink:href="#Gradiente_sem_nome_112"/><linearGradient id="Gradiente_sem_nome_112-11" x1="-1221.78" y1="-676.07" x2="-1221.78" y2="-675.63" gradientTransform="matrix(-2.57, 2.12, -0.5, -10.92, -3445.02, -4756.78)" xlink:href="#Gradiente_sem_nome_112"/><linearGradient id="Gradiente_sem_nome_112-12" x1="-1106.05" y1="-907.93" x2="-1106.05" y2="-907.48" gradientTransform="translate(-12135.67 -2807.12) rotate(180) scale(11 3.13)" xlink:href="#Gradiente_sem_nome_112"/><linearGradient id="Gradiente_sem_nome_112-13" x1="-1237.01" y1="-689.04" x2="-1237.01" y2="-688.6" gradientTransform="matrix(-2.26, 2.71, -0.56, -10.86, -3158.53, -4095.98)" xlink:href="#Gradiente_sem_nome_112"/><linearGradient id="Gradiente_sem_nome_112-14" x1="-1101.86" y1="-841.8" x2="-1101.86" y2="-841.36" gradientTransform="matrix(-10.78, 0.07, -0.19, -3.81, -12008.37, -3100.99)" xlink:href="#Gradiente_sem_nome_112"/><linearGradient id="Gradiente_sem_nome_112-15" x1="-1235.34" y1="-681.36" x2="-1235.34" y2="-680.91" gradientTransform="matrix(-2.37, 2.32, -0.5, -10.93, -3241.53, -4536.68)" xlink:href="#Gradiente_sem_nome_112"/><linearGradient id="Gradiente_sem_nome_112-16" x1="-1104.19" y1="-791.49" x2="-1104.19" y2="-791.05" gradientTransform="matrix(-10.48, 0.08, -0.18, -4.56, -11693.21, -3488.25)" xlink:href="#Gradiente_sem_nome_112"/><linearGradient id="Gradiente_sem_nome_112-17" x1="-1211.27" y1="-670.83" x2="-1211.27" y2="-670.38" gradientTransform="matrix(-2.8, 1.92, -0.49, -10.9, -3701.63, -4943.65)" xlink:href="#Gradiente_sem_nome_112"/><linearGradient id="Gradiente_sem_nome_112-18" x1="-1106.68" y1="-754.59" x2="-1106.68" y2="-754.14" gradientTransform="matrix(-10.11, 0.09, -0.18, -5.34, -11298.56, -3886.54)" xlink:href="#Gradiente_sem_nome_112"/><linearGradient id="Gradiente_sem_nome_112-19" x1="-1185.51" y1="-662.73" x2="-1185.51" y2="-662.29" gradientTransform="matrix(-3.44, 1.52, -0.48, -10.78, -4376.17, -5307.51)" xlink:href="#Gradiente_sem_nome_112"/><linearGradient id="Gradiente_sem_nome_112-20" x1="-1106.2" y1="-728.05" x2="-1106.2" y2="-727.61" gradientTransform="matrix(-9.66, 0.21, -0.34, -6.1, -10912.99, -4165.86)" xlink:href="#Gradiente_sem_nome_112"/><linearGradient id="Gradiente_sem_nome_112-21" x1="-1163.63" y1="-659.89" x2="-1163.63" y2="-659.45" gradientTransform="matrix(-4.17, 1.3, -0.51, -10.55, -5171.85, -5410.44)" xlink:href="#Gradiente_sem_nome_112"/><linearGradient id="Gradiente_sem_nome_112-22" x1="-1109.85" y1="-707.44" x2="-1109.85" y2="-707" gradientTransform="matrix(-9.15, 0.24, -0.32, -6.84, -10361.17, -4533.44)" xlink:href="#Gradiente_sem_nome_112"/><linearGradient id="Gradiente_sem_nome_112-23" x1="-1149.91" y1="-657.95" x2="-1149.91" y2="-657.5" gradientTransform="matrix(-4.95, 0.9, -0.43, -10.25, -5958.54, -5666.91)" xlink:href="#Gradiente_sem_nome_112"/><linearGradient id="Gradiente_sem_nome_112-24" x1="-1114.05" y1="-691.62" x2="-1114.05" y2="-691.18" gradientTransform="matrix(-8.57, 0.26, -0.3, -7.55, -9740.69, -4883.01)" xlink:href="#Gradiente_sem_nome_112"/><linearGradient id="Gradiente_sem_nome_112-25" x1="-1138.67" y1="-659.71" x2="-1138.67" y2="-659.27" gradientTransform="matrix(-5.73, 0.69, -0.4, -9.86, -6765.57, -5669.4)" xlink:href="#Gradiente_sem_nome_112"/><linearGradient id="Gradiente_sem_nome_112-26" x1="-1116.59" y1="-680.32" x2="-1116.59" y2="-679.88" gradientTransform="matrix(-7.94, 0.43, -0.42, -8.21, -9129.23, -5052.71)" xlink:href="#Gradiente_sem_nome_112"/><linearGradient id="Gradiente_sem_nome_112-27" x1="-1128.48" y1="-664.47" x2="-1128.48" y2="-664.03" gradientTransform="matrix(-6.49, 0.66, -0.45, -9.38, -7598.21, -5441.58)" xlink:href="#Gradiente_sem_nome_112"/><linearGradient id="Gradiente_sem_nome_112-28" x1="-1122.89" y1="-670.74" x2="-1122.89" y2="-670.3" gradientTransform="matrix(-7.26, 0.46, -0.38, -8.82, -8384.43, -5342.29)" xlink:href="#Gradiente_sem_nome_112"/><linearGradient id="Gradiente_sem_nome_112-29" x1="-1122.77" y1="-669.89" x2="-1122.77" y2="-669.45" gradientTransform="matrix(-7.22, 0.46, -0.38, -8.85, -8333.46, -5351.54)" xlink:href="#Gradiente_sem_nome_112"/><linearGradient id="Gradiente_sem_nome_112-30" x1="-1128.51" y1="-664.5" x2="-1128.51" y2="-664.06" gradientTransform="matrix(-6.53, 0.65, -0.46, -9.35, -7650.94, -5421.95)" xlink:href="#Gradiente_sem_nome_112"/><linearGradient id="Gradiente_sem_nome_112-31" x1="-1116.44" y1="-678.5" x2="-1116.44" y2="-678.05" gradientTransform="matrix(-7.9, 0.43, -0.41, -8.24, -9079.62, -5052.75)" xlink:href="#Gradiente_sem_nome_112"/><linearGradient id="Gradiente_sem_nome_112-32" x1="-1138.57" y1="-658.98" x2="-1138.57" y2="-658.54" gradientTransform="matrix(-5.77, 0.69, -0.4, -9.84, -6821.03, -5640.15)" xlink:href="#Gradiente_sem_nome_112"/><linearGradient id="Gradiente_sem_nome_112-33" x1="-1113.85" y1="-688.65" x2="-1113.85" y2="-688.21" gradientTransform="matrix(-8.54, 0.27, -0.3, -7.59, -9694.12, -4873.74)" xlink:href="#Gradiente_sem_nome_112"/><linearGradient id="Gradiente_sem_nome_112-34" x1="-1149.7" y1="-656.54" x2="-1149.7" y2="-656.09" gradientTransform="matrix(-5, 0.9, -0.44, -10.23, -6011.27, -5628.68)" xlink:href="#Gradiente_sem_nome_112"/><linearGradient id="Gradiente_sem_nome_112-35" x1="-1109.65" y1="-703.1" x2="-1109.65" y2="-702.66" gradientTransform="matrix(-9.12, 0.24, -0.32, -6.89, -10315.35, -4513.8)" xlink:href="#Gradiente_sem_nome_112"/><linearGradient id="Gradiente_sem_nome_112-36" x1="-1163.21" y1="-657.86" x2="-1163.21" y2="-657.42" gradientTransform="matrix(-4.22, 1.29, -0.52, -10.53, -5223.42, -5361.94)" xlink:href="#Gradiente_sem_nome_112"/><linearGradient id="Gradiente_sem_nome_112-37" x1="-1106.04" y1="-721.92" x2="-1106.04" y2="-721.48" gradientTransform="matrix(-9.63, 0.21, -0.34, -6.15, -10870.46, -4137.02)" xlink:href="#Gradiente_sem_nome_112"/><linearGradient id="Gradiente_sem_nome_112-38" x1="-1184.72" y1="-660.05" x2="-1184.72" y2="-659.61" gradientTransform="matrix(-3.48, 1.51, -0.49, -10.77, -4424.38, -5250.68)" xlink:href="#Gradiente_sem_nome_112"/><linearGradient id="Gradiente_sem_nome_112-39" x1="-1106.39" y1="-746.19" x2="-1106.39" y2="-745.75" gradientTransform="matrix(-10.08, 0.09, -0.18, -5.39, -11261.37, -3848.23)" xlink:href="#Gradiente_sem_nome_112"/><linearGradient id="Gradiente_sem_nome_112-40" x1="-1210.3" y1="-667.48" x2="-1210.3" y2="-667.04" gradientTransform="matrix(-2.83, 1.92, -0.5, -10.9, -3739.9, -4879.25)" xlink:href="#Gradiente_sem_nome_112"/><linearGradient id="Gradiente_sem_nome_112-41" x1="-1103.92" y1="-780.04" x2="-1103.92" y2="-779.59" gradientTransform="matrix(-10.46, 0.08, -0.18, -4.61, -11661.41, -3440.21)" xlink:href="#Gradiente_sem_nome_112"/><linearGradient id="Gradiente_sem_nome_112-42" x1="-1234.95" y1="-677.54" x2="-1234.95" y2="-677.09" gradientTransform="matrix(-2.38, 2.32, -0.51, -10.93, -3261.83, -4463.8)" xlink:href="#Gradiente_sem_nome_112"/><linearGradient id="Gradiente_sem_nome_112-43" x1="-1101.66" y1="-826.12" x2="-1101.66" y2="-825.68" gradientTransform="matrix(-10.76, 0.07, -0.19, -3.86, -11976.5, -3042.8)" xlink:href="#Gradiente_sem_nome_112"/><linearGradient id="Gradiente_sem_nome_112-44" x1="-1238.59" y1="-685.14" x2="-1238.59" y2="-684.7" gradientTransform="matrix(-2.25, 2.71, -0.56, -10.86, -3150.98, -4014.29)" xlink:href="#Gradiente_sem_nome_112"/><linearGradient id="Gradiente_sem_nome_112-45" x1="-1105.56" y1="-887.31" x2="-1105.56" y2="-886.87" gradientTransform="translate(-12110.52 -2735.78) rotate(180) scale(10.98 3.16)" xlink:href="#Gradiente_sem_nome_112"/><linearGradient id="Gradiente_sem_nome_112-46" x1="-1224.38" y1="-671.83" x2="-1224.38" y2="-671.38" gradientTransform="matrix(-2.54, 2.12, -0.49, -10.93, -3412.36, -4666.75)" xlink:href="#Gradiente_sem_nome_112"/><linearGradient id="Gradiente_sem_nome_112-47" x1="-1104.79" y1="-959.31" x2="-1104.79" y2="-958.87" gradientTransform="translate(-12258.82 -2435.94) rotate(180) scale(11.13 2.62)" xlink:href="#Gradiente_sem_nome_112"/><linearGradient id="Gradiente_sem_nome_112-48" x1="-1194.41" y1="-664.34" x2="-1194.41" y2="-663.9" gradientTransform="matrix(-3.08, 1.91, -0.54, -10.83, -4005.08, -4836.98)" xlink:href="#Gradiente_sem_nome_112"/><linearGradient id="Gradiente_sem_nome_112-49" x1="-1104.33" y1="-1009.85" x2="-1104.33" y2="-1009.41" gradientTransform="translate(-12319.15 -2278.61) rotate(180) scale(11.19 2.33)" xlink:href="#Gradiente_sem_nome_112"/><linearGradient id="Gradiente_sem_nome_112-50" x1="-1170.67" y1="-657.56" x2="-1170.67" y2="-657.11" gradientTransform="matrix(-3.77, 1.5, -0.53, -10.68, -4733.69, -5184.66)" xlink:href="#Gradiente_sem_nome_112"/><linearGradient id="Gradiente_sem_nome_112-51" x1="-1120.75" y1="-1009.72" x2="-1120.75" y2="-1009.27" gradientTransform="matrix(-11.18, -0.08, 0.39, -2.32, -12101.5, -2359.62)" xlink:href="#Gradiente_sem_nome_112"/><linearGradient id="Gradiente_sem_nome_112-52" x1="-1207.27" y1="-604.14" x2="-1207.27" y2="-603.69" gradientTransform="matrix(-3.72, -2.96, 1.07, -10.34, -3816.36, -9747.3)" xlink:href="#Gradiente_sem_nome_112"/><linearGradient id="Gradiente_sem_nome_112-53" x1="-1127.75" y1="-689.23" x2="-1127.75" y2="-688.79" gradientTransform="matrix(-8.95, -0.62, 0.78, -7.05, -9513.88, -5475.65)" xlink:href="#Gradiente_sem_nome_112"/><linearGradient id="Gradiente_sem_nome_112-54" x1="-1154.03" y1="-645.66" x2="-1154.03" y2="-645.21" gradientTransform="matrix(-5.36, -1.05, 0.56, -10.03, -5753.7, -7665.34)" xlink:href="#Gradiente_sem_nome_112"/><linearGradient id="Gradiente_sem_nome_112-55" x1="-1108.27" y1="-942.08" x2="-1108.27" y2="-941.63" gradientTransform="matrix(-11.06, -0.05, 0.19, -2.88, -12013.47, -2742.62)" xlink:href="#Gradiente_sem_nome_112"/><linearGradient id="Gradiente_sem_nome_112-56" x1="-1168.09" y1="-638.23" x2="-1168.09" y2="-637.79" gradientTransform="matrix(-4.58, -1.27, 0.56, -10.38, -4921.8, -8086.38)" xlink:href="#Gradiente_sem_nome_112"/><linearGradient id="Gradiente_sem_nome_112-57" x1="-1108.9" y1="-1014.07" x2="-1108.9" y2="-1013.63" gradientTransform="matrix(-11.17, -0.04, 0.19, -2.44, -12118.48, -2493.21)" xlink:href="#Gradiente_sem_nome_112"/><linearGradient id="Gradiente_sem_nome_112-58" x1="-1186.75" y1="-630.7" x2="-1186.75" y2="-630.26" gradientTransform="matrix(-3.82, -1.5, 0.54, -10.66, -4124.52, -8466.99)" xlink:href="#Gradiente_sem_nome_112"/><linearGradient id="Gradiente_sem_nome_112-59" x1="-1108.97" y1="-1036.06" x2="-1108.97" y2="-1035.62" gradientTransform="matrix(-11.19, -0.04, 0.2, -2.32, -12139.16, -2426.67)" xlink:href="#Gradiente_sem_nome_112"/><linearGradient id="Gradiente_sem_nome_112-60" x1="-1213.9" y1="-617.27" x2="-1213.9" y2="-616.82" gradientTransform="matrix(-3.11, -2.1, 0.6, -10.78, -3327.18, -9166.96)" xlink:href="#Gradiente_sem_nome_112"/><linearGradient id="Gradiente_sem_nome_112-61" x1="-1108.04" y1="-984.41" x2="-1108.04" y2="-983.97" gradientTransform="matrix(-11.13, -0.05, 0.19, -2.59, -12071.81, -2570.12)" xlink:href="#Gradiente_sem_nome_112"/><linearGradient id="Gradiente_sem_nome_112-62" x1="-1241.64" y1="-607.38" x2="-1241.64" y2="-606.94" gradientTransform="matrix(-2.56, -2.31, 0.54, -10.89, -2773.02, -9450.03)" xlink:href="#Gradiente_sem_nome_112"/><linearGradient id="Gradiente_sem_nome_112-63" x1="-1106.96" y1="-907.22" x2="-1106.96" y2="-906.77" gradientTransform="matrix(-10.99, -0.05, 0.19, -3.13, -11921.85, -2864.84)" xlink:href="#Gradiente_sem_nome_112"/><linearGradient id="Gradiente_sem_nome_112-64" x1="-1263" y1="-592.26" x2="-1263" y2="-591.81" gradientTransform="matrix(-2.25, -2.9, 0.6, -10.81, -2411.99, -10022.35)" xlink:href="#Gradiente_sem_nome_112"/><linearGradient id="Gradiente_sem_nome_112-65" x1="-1111.61" y1="-839.52" x2="-1111.61" y2="-839.07" gradientTransform="matrix(-10.77, -0.13, 0.38, -3.81, -11582.52, -3311.97)" xlink:href="#Gradiente_sem_nome_112"/><linearGradient id="Gradiente_sem_nome_112-66" x1="-1253.81" y1="-600.83" x2="-1253.81" y2="-600.39" gradientTransform="matrix(-2.36, -2.51, 0.54, -10.88, -2554.87, -9650.51)" xlink:href="#Gradiente_sem_nome_112"/><linearGradient id="Gradiente_sem_nome_112-67" x1="-1110.77" y1="-789.2" x2="-1110.77" y2="-788.75" gradientTransform="matrix(-10.47, -0.16, 0.37, -4.56, -11269.28, -3741.01)" xlink:href="#Gradiente_sem_nome_112"/><linearGradient id="Gradiente_sem_nome_112-68" x1="-1225.87" y1="-613.15" x2="-1225.87" y2="-612.71" gradientTransform="matrix(-2.79, -2.11, 0.54, -10.87, -3015.33, -9210.85)" xlink:href="#Gradiente_sem_nome_112"/><linearGradient id="Gradiente_sem_nome_112-69" x1="-1110.78" y1="-752.21" x2="-1110.78" y2="-751.77" gradientTransform="matrix(-10.1, -0.19, 0.35, -5.34, -10878.97, -4182.11)" xlink:href="#Gradiente_sem_nome_112"/><linearGradient id="Gradiente_sem_nome_112-70" x1="-1196.93" y1="-624.41" x2="-1196.93" y2="-623.97" gradientTransform="matrix(-3.43, -1.7, 0.54, -10.76, -3690.83, -8712.78)" xlink:href="#Gradiente_sem_nome_112"/><linearGradient id="Gradiente_sem_nome_112-71" x1="-1114.79" y1="-723.91" x2="-1114.79" y2="-723.47" gradientTransform="matrix(-9.65, -0.32, 0.51, -6.1, -10316.92, -4729.16)" xlink:href="#Gradiente_sem_nome_112"/><linearGradient id="Gradiente_sem_nome_112-72" x1="-1174.97" y1="-631.9" x2="-1174.97" y2="-631.45" gradientTransform="matrix(-4.16, -1.48, 0.59, -10.53, -4444.78, -8346.05)" xlink:href="#Gradiente_sem_nome_112"/><linearGradient id="Gradiente_sem_nome_112-73" x1="-1115.98" y1="-703.11" x2="-1115.98" y2="-702.66" gradientTransform="matrix(-9.14, -0.36, 0.48, -6.84, -9786.38, -5165.42)" xlink:href="#Gradiente_sem_nome_112"/><linearGradient id="Gradiente_sem_nome_112-74" x1="-1156.79" y1="-640.56" x2="-1156.79" y2="-640.12" gradientTransform="matrix(-4.94, -1.08, 0.52, -10.24, -5308.67, -7753.79)" xlink:href="#Gradiente_sem_nome_112"/><linearGradient id="Gradiente_sem_nome_112-75" x1="-1118.07" y1="-687.03" x2="-1118.07" y2="-686.58" gradientTransform="matrix(-8.57, -0.4, 0.45, -7.55, -9191.13, -5580.32)" xlink:href="#Gradiente_sem_nome_112"/><linearGradient id="Gradiente_sem_nome_112-76" x1="-1144.16" y1="-647.39" x2="-1144.16" y2="-646.94" gradientTransform="matrix(-5.72, -0.86, 0.5, -9.85, -6143.91, -7309.9)" xlink:href="#Gradiente_sem_nome_112"/><linearGradient id="Gradiente_sem_nome_112-77" x1="-1123.48" y1="-673.35" x2="-1123.48" y2="-672.91" gradientTransform="matrix(-7.93, -0.57, 0.55, -8.2, -8455.14, -6113.77)" xlink:href="#Gradiente_sem_nome_112"/><linearGradient id="Gradiente_sem_nome_112-78" x1="-1136.26" y1="-653.56" x2="-1136.26" y2="-653.12" gradientTransform="matrix(-6.48, -0.82, 0.57, -9.37, -6910.51, -7002.71)" xlink:href="#Gradiente_sem_nome_112"/><linearGradient id="Gradiente_sem_nome_112-79" x1="-1127.63" y1="-663.15" x2="-1127.63" y2="-662.7" gradientTransform="matrix(-7.25, -0.62, 0.51, -8.81, -7756.61, -6482.51)" xlink:href="#Gradiente_sem_nome_112"/><linearGradient id="Gradiente_sem_nome_112-80" x1="-1128.42" y1="-662.26" x2="-1128.42" y2="-661.82" gradientTransform="matrix(-7.21, -0.62, 0.5, -8.84, -7722.62, -6495.85)" xlink:href="#Gradiente_sem_nome_112"/><linearGradient id="Gradiente_sem_nome_112-81" x1="-1135.34" y1="-653.66" x2="-1135.34" y2="-653.22" gradientTransform="matrix(-6.52, -0.82, 0.57, -9.34, -6946.66, -6978.15)" xlink:href="#Gradiente_sem_nome_112"/><linearGradient id="Gradiente_sem_nome_112-82" x1="-1124.16" y1="-671.5" x2="-1124.16" y2="-671.05" gradientTransform="matrix(-7.89, -0.58, 0.55, -8.23, -8423.98, -6118.74)" xlink:href="#Gradiente_sem_nome_112"/><linearGradient id="Gradiente_sem_nome_112-83" x1="-1143.02" y1="-646.77" x2="-1143.02" y2="-646.32" gradientTransform="matrix(-5.77, -0.86, 0.5, -9.82, -6184.51, -7276.56)" xlink:href="#Gradiente_sem_nome_112"/><linearGradient id="Gradiente_sem_nome_112-84" x1="-1118.65" y1="-684.03" x2="-1118.65" y2="-683.58" gradientTransform="matrix(-8.53, -0.4, 0.45, -7.59, -9162.45, -5574.72)" xlink:href="#Gradiente_sem_nome_112"/><linearGradient id="Gradiente_sem_nome_112-85" x1="-1155.4" y1="-639.32" x2="-1155.4" y2="-638.88" gradientTransform="matrix(-4.99, -1.07, 0.52, -10.22, -5348.32, -7711.59)" xlink:href="#Gradiente_sem_nome_112"/><linearGradient id="Gradiente_sem_nome_112-86" x1="-1116.47" y1="-698.75" x2="-1116.47" y2="-698.31" gradientTransform="matrix(-9.11, -0.36, 0.48, -6.88, -9759.67, -5149.77)" xlink:href="#Gradiente_sem_nome_112"/><linearGradient id="Gradiente_sem_nome_112-87" x1="-1173.23" y1="-630.17" x2="-1173.23" y2="-629.72" gradientTransform="matrix(-4.21, -1.48, 0.59, -10.51, -4483.14, -8292.52)" xlink:href="#Gradiente_sem_nome_112"/><linearGradient id="Gradiente_sem_nome_112-88" x1="-1115.15" y1="-717.78" x2="-1115.15" y2="-717.33" gradientTransform="matrix(-9.62, -0.32, 0.5, -6.14, -10295.15, -4704.72)" xlink:href="#Gradiente_sem_nome_112"/><linearGradient id="Gradiente_sem_nome_112-89" x1="-1194.74" y1="-622.17" x2="-1194.74" y2="-621.73" gradientTransform="matrix(-3.47, -1.7, 0.55, -10.74, -3727.45, -8652.23)" xlink:href="#Gradiente_sem_nome_112"/><linearGradient id="Gradiente_sem_nome_112-90" x1="-1111.15" y1="-743.83" x2="-1111.15" y2="-743.38" gradientTransform="matrix(-10.08, -0.19, 0.35, -5.38, -10863.3, -4146.55)" xlink:href="#Gradiente_sem_nome_112"/><linearGradient id="Gradiente_sem_nome_112-91" x1="-1223.34" y1="-610.47" x2="-1223.34" y2="-610.02" gradientTransform="matrix(-2.82, -2.11, 0.55, -10.86, -3043.48, -9144.78)" xlink:href="#Gradiente_sem_nome_112"/><linearGradient id="Gradiente_sem_nome_112-92" x1="-1111" y1="-777.72" x2="-1111" y2="-777.28" gradientTransform="matrix(-10.45, -0.16, 0.37, -4.61, -11258.11, -3695.63)" xlink:href="#Gradiente_sem_nome_112"/><linearGradient id="Gradiente_sem_nome_112-93" x1="-1251.64" y1="-597.58" x2="-1251.64" y2="-597.14" gradientTransform="matrix(-2.37, -2.51, 0.55, -10.88, -2569.38, -9578.15)" xlink:href="#Gradiente_sem_nome_112"/><linearGradient id="Gradiente_sem_nome_112-94" x1="-1111.68" y1="-823.86" x2="-1111.68" y2="-823.42" gradientTransform="matrix(-10.75, -0.13, 0.38, -3.86, -11572.75, -3256.44)" xlink:href="#Gradiente_sem_nome_112"/><linearGradient id="Gradiente_sem_nome_112-95" x1="-1262.28" y1="-588.13" x2="-1262.28" y2="-587.69" gradientTransform="matrix(-2.25, -2.9, 0.6, -10.81, -2407.2, -9943.19)" xlink:href="#Gradiente_sem_nome_112"/><linearGradient id="Gradiente_sem_nome_112-96" x1="-1107.2" y1="-886.55" x2="-1107.2" y2="-886.1" gradientTransform="matrix(-10.98, -0.06, 0.19, -3.16, -11918.28, -2794.1)" xlink:href="#Gradiente_sem_nome_112"/><linearGradient id="Gradiente_sem_nome_112-97" x1="-1242.53" y1="-602.44" x2="-1242.53" y2="-601.99" gradientTransform="matrix(-2.53, -2.32, 0.54, -10.89, -2749.13, -9362.93)" xlink:href="#Gradiente_sem_nome_112"/><linearGradient id="Gradiente_sem_nome_112-98" x1="-1108.17" y1="-958.58" x2="-1108.17" y2="-958.13" gradientTransform="matrix(-11.12, -0.05, 0.19, -2.62, -12074.57, -2484.22)" xlink:href="#Gradiente_sem_nome_112"/><linearGradient id="Gradiente_sem_nome_112-99" x1="-1214.9" y1="-611.77" x2="-1214.9" y2="-611.32" gradientTransform="matrix(-3.07, -2.1, 0.6, -10.8, -3292.29, -9076.4)" xlink:href="#Gradiente_sem_nome_112"/><linearGradient id="Gradiente_sem_nome_112-100" x1="-1109.06" y1="-1009.08" x2="-1109.06" y2="-1008.63" gradientTransform="matrix(-11.19, -0.04, 0.2, -2.33, -12142.91, -2321.56)" xlink:href="#Gradiente_sem_nome_112"/><linearGradient id="Gradiente_sem_nome_112-101" x1="-1189.1" y1="-622.55" x2="-1189.1" y2="-622.11" gradientTransform="matrix(-3.76, -1.69, 0.6, -10.65, -4037.49, -8555.33)" xlink:href="#Gradiente_sem_nome_112"/><linearGradient id="Gradiente_sem_nome_112-102" x1="-1092.65" y1="-1012.04" x2="-1092.65" y2="-1011.6" gradientTransform="matrix(-11.19, 0.04, -0.2, -2.32, -12354.3, -2230.99)" xlink:href="#Gradiente_sem_nome_112"/><linearGradient id="Gradiente_sem_nome_112-103" x1="-1142.85" y1="-666.7" x2="-1142.85" y2="-666.25" gradientTransform="matrix(-3.74, 2.78, -1, -10.39, -4875.66, -3666.67)" xlink:href="#Gradiente_sem_nome_112"/><linearGradient id="Gradiente_sem_nome_112-104" x1="-1099.56" y1="-697.33" x2="-1099.56" y2="-696.88" gradientTransform="matrix(-8.96, 0.49, -0.63, -7.06, -10222.26, -4301.24)" xlink:href="#Gradiente_sem_nome_112"/><linearGradient id="Gradiente_sem_nome_113" x1="-1067.2" y1="-529.03" x2="-1067.2" y2="-528.59" gradientTransform="matrix(63.72, -74.58, 68.33, 69.54, 104179.38, -42763.61)" gradientUnits="userSpaceOnUse"><stop offset="0" stop-color="#e89e5a"/><stop offset="0.19" stop-color="#f3daa8"/><stop offset="0.41" stop-color="#e89e5a"/><stop offset="0.63" stop-color="#d77f41"/><stop offset="0.77" stop-color="#e89e5a"/><stop offset="0.91" stop-color="#f3daa8"/><stop offset="1" stop-color="#e89e5a"/></linearGradient></defs><g id="Layer1007"><path id="path1024" class="cls-1" d="M95.67,50.47A44.74,44.74,0,1,1,50.94,5.74,44.73,44.73,0,0,1,95.67,50.47Z" transform="translate(0 0)"/><path id="path1030" class="cls-2" d="M0,50a50,50,0,0,0,50,50h0A50,50,0,1,0,0,50Zm2.74,0A47.27,47.27,0,0,1,50,2.74h0A47.27,47.27,0,0,1,97.26,50h0A47.27,47.27,0,0,1,50,97.26h0A47.25,47.25,0,0,1,2.74,50Z" transform="translate(0 0)"/><path id="path1037" class="cls-3" d="M2.74,50A47.27,47.27,0,0,0,50,97.26h0A47.27,47.27,0,0,0,97.26,50h0A47.26,47.26,0,0,0,2.74,50ZM41.83,90.59h0c-.37-.07-.75-.16-1.12-.25h0c-1.28-.28-2.52-.66-3.74-1h0q-1.17-.37-2.34-.84h0c-1.46-.6-2.83-1.25-4.21-2h0a39.23,39.23,0,0,1-4.52-2.8h0c-1.06-.75-2-1.56-3-2.4h0c-.65-.56-1.31-1.16-1.9-1.78h0a34,34,0,0,1-2.71-2.93h0a36.38,36.38,0,0,1-3.09-4.18h0a41.63,41.63,0,0,1-2.52-4.52h0c-.32-.62-.6-1.24-.85-1.87h0A41.09,41.09,0,0,1,8.6,50h0a41.66,41.66,0,0,1,1-8.88h0c.19-.88.41-1.75.65-2.59h0a40.79,40.79,0,0,1,3.87-9.1h0c.22-.38.44-.78.69-1.16h0a42.63,42.63,0,0,1,4.55-6h0l1.59-1.69h0a40.38,40.38,0,0,1,4.89-4.14h0a.36.36,0,0,1,.13-.1h0a38.39,38.39,0,0,1,4.52-2.8h0a39.6,39.6,0,0,1,4.27-2h0a45.5,45.5,0,0,1,5.45-1.74h0c.19,0,.34-.1.53-.13h0l.81-.18h0A41.63,41.63,0,0,1,50,8.57h0c.41,0,.84,0,1.25,0h0c.37,0,.71,0,1.09,0h0c.62,0,1.28.1,1.9.16h0a40.79,40.79,0,0,1,5.52.94h0A39,39,0,0,1,63.93,11h0a45.76,45.76,0,0,1,5.43,2.37h0c.31.16.62.34.9.5h0c1,.59,2.06,1.22,3,1.87h0c.37.25.74.53,1.12.78h0A40.61,40.61,0,0,1,79,20.42h0a37.51,37.51,0,0,1,4,4.64h0a38.65,38.65,0,0,1,3.4,5.33h0a41,41,0,0,1,2.62,6h0c.28.78.53,1.59.75,2.4h0a41.3,41.3,0,0,1,1.53,11.19h0v0h0v0h0v0h0a41.85,41.85,0,0,1-.6,7h0a42.73,42.73,0,0,1-1.68,6.55h0a40.91,40.91,0,0,1-2.62,6h0a42.75,42.75,0,0,1-3.4,5.34h0a42.87,42.87,0,0,1-4,4.64h0a42.76,42.76,0,0,1-4.61,3.93h0a40.41,40.41,0,0,1-5,3.15h0c-.59.31-1.19.62-1.78.9h0c-.9.44-1.84.81-2.77,1.18h0L64,89h0a47.46,47.46,0,0,1-5.68,1.59h0a41,41,0,0,1-5.89.74h0a8.87,8.87,0,0,1-1,0h0c-.43,0-.87,0-1.31,0h0a41.62,41.62,0,0,1-8.23-.81Z" transform="translate(0 0)"/><path id="path1043" class="cls-4" d="M36.88,89.28c-.5-.16-1-.35-1.47-.53h0l-.75-.28C35.38,88.75,36.13,89,36.88,89.28Zm0,0h0Zm0,0Zm.06,0s0,0-.06,0h0A.1.1,0,0,1,37,89.31Z" transform="translate(0 0)"/><path id="path1049" class="cls-5" d="M64.74,88.68c.94-.37,1.87-.74,2.78-1.18h0C66.61,87.94,65.71,88.31,64.74,88.68Z" transform="translate(0 0)"/><path id="path1055" class="cls-6" d="M22.91,81.3l-1-.94h0c-.31-.28-.59-.56-.87-.84C21.6,80.14,22.26,80.74,22.91,81.3Z" transform="translate(0 0)"/><path id="path1061" class="cls-7" d="M11.85,66.05Z" transform="translate(0 0)"/><path id="path1067" class="cls-8" d="M8.6,50a41.64,41.64,0,0,0,3.21,16h0c-.4-1-.78-1.93-1.09-2.93h0A40.3,40.3,0,0,1,9.38,58h0a42,42,0,0,1-.68-5.3h0a38.13,38.13,0,0,1,0-5.45h0A42,42,0,0,1,9.38,42h0c.07-.28.13-.59.19-.88h0A42.54,42.54,0,0,0,8.6,50Z" transform="translate(0 0)"/><path id="path1073" class="cls-9" d="M41.52,9.48a40.93,40.93,0,0,1,4.86-.72h0c1.19-.09,2.4-.16,3.62-.16h0c.41,0,.81,0,1.25,0h0L50,8.6h0A42.35,42.35,0,0,0,41.52,9.48Zm12.72-.66Zm0,0Zm.09,0h-.09A.06.06,0,0,1,54.33,8.85Zm0,0Zm.1,0h0Zm0,0Zm.15,0a.38.38,0,0,1-.18,0h0A.53.53,0,0,0,54.58,8.85Zm0,0Zm1.59.22c-.53-.06-1-.15-1.56-.22h0C55.11,8.92,55.64,9,56.17,9.07Zm0,0Zm.16,0c-.06,0-.1,0-.16,0h0A1.57,1.57,0,0,0,56.33,9.1Zm0,0Zm0,0h0Zm.06,0h0Zm0,0Zm.07,0h0Zm0,0Zm1.68.32c.47.09.93.18,1.37.31h0c-1-.25-2-.44-3.05-.6h0A16.4,16.4,0,0,1,58.23,9.45Zm1.43.31H59.6S59.63,9.76,59.66,9.76Zm0,0Zm.07,0s0,0-.07,0h0S59.73,9.76,59.76,9.76ZM34.91,11.44l.47-.19h0a36.44,36.44,0,0,1,4.77-1.46h0A44.19,44.19,0,0,0,34.91,11.44Zm-.18.09.18-.09h0Zm38.56,4.24c-1-.65-2-1.27-3-1.87h0C71.29,14.46,72.29,15.09,73.29,15.77ZM20.92,20.54c.31-.31.62-.59.93-.9h0a39.92,39.92,0,0,1,4-3.24h0A43.7,43.7,0,0,0,20.92,20.54Zm0,0Zm-6.11,7.7c.12-.22.28-.43.4-.65h0a44.15,44.15,0,0,1,3.09-4.18h0c.34-.41.68-.81,1-1.18h0A38.09,38.09,0,0,0,14.81,28.24Zm0,0,0,0h0A0,0,0,0,0,14.78,28.27ZM14,29.52s0-.06,0-.09h0A.11.11,0,0,1,14,29.52Zm0,0Zm-3.81,9c.16-.53.32-1.09.5-1.62h0a39.9,39.9,0,0,1,2-4.8h0c.43-.88.87-1.75,1.34-2.59h0A41.55,41.55,0,0,0,10.22,38.53Zm80.55,4.39a36.91,36.91,0,0,1,.5,4.24h0a41,41,0,0,0-1.43-8.38h0A31.83,31.83,0,0,1,90.77,42.92Zm.53,4.24Zm0,.16v-.16h0Zm0,0Zm0,0v-.06h0Zm0,0Zm0,.19v-.16h0A.15.15,0,0,0,91.33,47.57Zm0,0Zm0,0v-.06h0Zm0,0Zm0,.47a2,2,0,0,0,0-.44h0A2,2,0,0,1,91.33,48.07Zm0,0Zm.07,1.56c0-.53,0-1.06,0-1.59h0C91.37,48.57,91.4,49.1,91.4,49.63Zm0,0Zm0,.06v-.06h0Zm0,0Zm0,.12v-.12h0Zm0,0Zm0,0v0h0Zm0,0Zm0,0v0h0Zm0,0Zm0,0v-.06h0Zm0,0Z" transform="translate(0 0)"/><path id="path1080" class="cls-10" d="M50.06,8.6h0c-1.21,0-2.43.07-3.61.16a40.8,40.8,0,0,0-4.87.72h0l-.81.18h0c-.19,0-.34.1-.53.13h0a44.13,44.13,0,0,0-4.77,1.46h0a3.66,3.66,0,0,1-.68.25h0a39.6,39.6,0,0,0-4.27,2h0A38.39,38.39,0,0,0,26,16.3h0a.49.49,0,0,1-.13.1h0a39.92,39.92,0,0,0-4,3.24h0c-.31.28-.62.59-.93.9h0a19.6,19.6,0,0,0-1.59,1.69h0c-.34.4-.69.77-1,1.18h0a37.6,37.6,0,0,0-3.09,4.18h0c-.15.22-.31.46-.43.68h0c-.25.38-.47.75-.69,1.16h0c-.5.87-1,1.74-1.4,2.65h0a46.51,46.51,0,0,0-2,4.8h0c-.18.53-.34,1.06-.49,1.62h0c-.25.84-.47,1.71-.66,2.58h0c-.06.29-.12.6-.19.88h0a42,42,0,0,0-.68,5.3h0a38.13,38.13,0,0,0,0,5.45h0A42,42,0,0,0,9.41,58h0a40.3,40.3,0,0,0,1.34,5.08h0c.35,1,.69,2,1.1,2.93h0l.84,1.87h0a43.39,43.39,0,0,0,2.52,4.52h0a44.15,44.15,0,0,0,3.09,4.18h0A34,34,0,0,0,21,79.52h0l.87.84h0l1,.94h0c1,.84,2,1.62,3,2.4h0a38.39,38.39,0,0,0,4.52,2.8h0a45,45,0,0,0,4.2,2h0l.75.28h0l1.59.56h0a38.13,38.13,0,0,0,3.74,1h0c.38.09.75.15,1.12.25h0c1.47.28,3,.49,4.56.65h0c1.18.09,2.4.16,3.61.16h0c.44,0,.87,0,1.31,0h0c.34,0,.69,0,1,0h0a46,46,0,0,0,5.89-.74h0A40.71,40.71,0,0,0,63.93,89h0l.85-.32h0c.93-.37,1.87-.74,2.77-1.18h0c.59-.28,1.22-.59,1.78-.9h0a48.9,48.9,0,0,0,5-3.15h0A43.75,43.75,0,0,0,79,79.52h0A37.51,37.51,0,0,0,83,74.88h0a38.76,38.76,0,0,0,3.4-5.34h0a40.91,40.91,0,0,0,2.62-6h0A39.53,39.53,0,0,0,90.74,57h0a42.14,42.14,0,0,0,.59-7h0v0h0v0h0v0h0a42.72,42.72,0,0,0-.59-7h0c-.25-1.43-.56-2.8-.93-4.14h0c-.22-.81-.47-1.62-.75-2.4h0a41,41,0,0,0-2.62-6h0A43.37,43.37,0,0,0,83,25.06h0A44,44,0,0,0,79,20.42h0a41.49,41.49,0,0,0-4.61-3.93h0c-.38-.28-.75-.53-1.13-.78h0a34.19,34.19,0,0,0-3-1.87h0c-.31-.16-.62-.34-.9-.5h0A39.66,39.66,0,0,0,63.9,11h0a37,37,0,0,0-4.17-1.24h0c-.5-.13-1-.25-1.53-.35h0a35.52,35.52,0,0,0-4-.59h0c-.63-.06-1.25-.12-1.9-.16h0c-.38,0-.72,0-1.09,0h0C50.84,8.63,50.44,8.6,50.06,8.6ZM9.63,50A40.38,40.38,0,0,1,50,9.63h0A40.38,40.38,0,0,1,90.37,50h0A40.38,40.38,0,0,1,50,90.37h0A40.34,40.34,0,0,1,9.63,50Z" transform="translate(0 0)"/><path id="path1087" class="cls-11" d="M9.63,50A40.38,40.38,0,0,0,50,90.37h0A40.37,40.37,0,1,0,9.63,50ZM39.09,69.54a21.3,21.3,0,0,1-8.23-8.16h0a23.19,23.19,0,0,1-3-11.69h0a22.13,22.13,0,0,1,3.05-11.47h0a21.51,21.51,0,0,1,8.39-8h0a24.46,24.46,0,0,1,12-2.93h0a24.83,24.83,0,0,1,9.82,2.12h0A23.87,23.87,0,0,1,69.33,35h0l-7.45,8.88A15.41,15.41,0,0,0,57,39.59h0A11.22,11.22,0,0,0,51.47,38h0a9.76,9.76,0,0,0-5.3,1.49h0a10.46,10.46,0,0,0-3.74,4.15h0a12.82,12.82,0,0,0-1.38,6h0a12.83,12.83,0,0,0,1.38,6h0a10.53,10.53,0,0,0,3.74,4.18h0a9.54,9.54,0,0,0,5.3,1.52h0a12.46,12.46,0,0,0,5.33-1.37h0a16.88,16.88,0,0,0,5.08-3.74h0l7.45,8a26.74,26.74,0,0,1-8.54,6.17h0a23.68,23.68,0,0,1-9.92,2.31h0a24.24,24.24,0,0,1-11.78-3Z" transform="translate(0 0)"/><path id="path1088" class="cls-12" d="M39.5,21.38a.77.77,0,0,0-.57,1,.81.81,0,0,0,1,.5,1.15,1.15,0,0,0,.59-.47,2.86,2.86,0,0,0,.44.25,1.5,1.5,0,0,1-.9.72,1.35,1.35,0,0,1-1.72-.81,1.33,1.33,0,0,1,1-1.68,1.66,1.66,0,0,1,1.18.09c-.09.15-.15.31-.24.5A1.08,1.08,0,0,0,39.5,21.38Z" transform="translate(0 0)"/><path id="path1089" class="cls-12" d="M42.77,21.7c-.22-.28-.41-.6-.63-.88-.06.35-.12.72-.18,1.06Zm.28.4c-.41.09-.81.16-1.19.25,0,.19-.06.34-.09.53-.19.06-.4.09-.59.16.15-.91.31-1.84.53-2.75a5.59,5.59,0,0,1,.62-.12c.56.75,1.09,1.53,1.62,2.27-.22,0-.4.07-.62.13A3.87,3.87,0,0,0,43.05,22.1Z" transform="translate(0 0)"/><path id="path1090" class="cls-12" d="M45.67,19.61c0,.15,0,.31.06.5l-.84.09c.09.69.18,1.37.28,2.06l-.59.09c-.1-.69-.22-1.37-.32-2-.28,0-.56.1-.81.13L43.36,20C44.14,19.83,44.89,19.7,45.67,19.61Z" transform="translate(0 0)"/><path id="path1091" class="cls-12" d="M48.22,19.39a2.53,2.53,0,0,0,0,.47L46.79,20c0,.19,0,.37.06.56l1.31-.09c0,.15,0,.31,0,.47L46.91,21c0,.19,0,.37.07.56l1.43-.09a2.37,2.37,0,0,0,0,.46c-.65,0-1.34.1-2,.16-.1-.84-.19-1.68-.28-2.53C46.79,19.48,47.51,19.45,48.22,19.39Z" transform="translate(0 0)"/><path id="path1092" class="cls-12" d="M50.69,20.64h.53c0,.31,0,.65,0,1a2.05,2.05,0,0,1-1.06.31,1.36,1.36,0,0,1-1.43-1.27,1.32,1.32,0,0,1,1.47-1.31,1.62,1.62,0,0,1,1.09.4c-.13.13-.25.28-.38.41a1,1,0,0,0-.75-.28.8.8,0,0,0-.84.81.81.81,0,0,0,.84.78,1.86,1.86,0,0,0,.53-.13A4.11,4.11,0,0,0,50.69,20.64Z" transform="translate(0 0)"/><path id="path1093" class="cls-12" d="M52.28,20.7a.79.79,0,0,0,.74.84.81.81,0,0,0,.88-.72.79.79,0,0,0-.75-.87A.84.84,0,0,0,52.28,20.7Zm2.24.22a1.47,1.47,0,0,1-2.9-.25,1.31,1.31,0,0,1,1.56-1.19A1.33,1.33,0,0,1,54.52,20.92Z" transform="translate(0 0)"/><path id="path1094" class="cls-12" d="M55.61,21.13l.56.1c.34.06.53-.06.59-.34s-.12-.47-.43-.53l-.56-.1A7.69,7.69,0,0,0,55.61,21.13Zm.81,1.38-.28-.78h-.06l-.53-.1a4.54,4.54,0,0,1-.13.72l-.59-.09c.13-.84.25-1.69.34-2.53l1.19.19c.72.12,1.06.53.93,1.09a.92.92,0,0,1-.65.72l.37.93A2.66,2.66,0,0,0,56.42,22.51Z" transform="translate(0 0)"/><path id="path1095" class="cls-12" d="M58.76,20.39c-.19.84-.41,1.65-.59,2.49-.19,0-.38-.09-.56-.12.18-.85.37-1.66.56-2.5C58.35,20.29,58.54,20.36,58.76,20.39Z" transform="translate(0 0)"/><path id="path1096" class="cls-12" d="M60.57,22.54a9.3,9.3,0,0,0-.13-1.06c-.25.28-.46.56-.68.84C60,22.38,60.29,22.48,60.57,22.54Zm0,.5c-.41-.13-.78-.25-1.19-.35l-.34.44c-.19-.06-.4-.09-.59-.16.56-.71,1.18-1.46,1.81-2.15l.62.19c.12.94.25,1.87.31,2.77l-.59-.18A3.44,3.44,0,0,0,60.6,23Z" transform="translate(0 0)"/><path id="path1097" class="cls-12" d="M42.3,79.3a.75.75,0,0,1,.78-.75.65.65,0,0,1,.53.22l-.09.1a.62.62,0,0,0-1.06.43.63.63,0,0,0,.62.63.65.65,0,0,0,.44-.19l.09.09a.62.62,0,0,1-.53.22A.73.73,0,0,1,42.3,79.3Z" transform="translate(0 0)"/><path id="path1098" class="cls-12" d="M44.79,79.52l-.34-.78-.34.78Zm.07.12h-.81l-.19.41H43.7l.69-1.47h.15l.69,1.47h-.16Z" transform="translate(0 0)"/><path id="path1099" class="cls-12" d="M45.64,78.71h-.53v-.13h1.18v.13h-.53v1.34H45.6V78.71Z" transform="translate(0 0)"/><path id="path1100" class="cls-12" d="M47.63,79.93v.12H46.57V78.58h1v.13h-.87v.53h.78v.12h-.78v.57Z" transform="translate(0 0)"/><path id="path1101" class="cls-12" d="M49,79.3h.16v.56a.77.77,0,0,1-.53.19.75.75,0,1,1,0-1.5.78.78,0,0,1,.56.22l-.09.1a.61.61,0,0,0-.44-.19.59.59,0,0,0-.62.62.63.63,0,0,0,.62.63A.49.49,0,0,0,49,79.8v-.5Z" transform="translate(0 0)"/><path id="path1102" class="cls-12" d="M50.87,79.3a.62.62,0,0,0-1.24,0,.63.63,0,0,0,.62.63A.59.59,0,0,0,50.87,79.3Zm-1.4,0a.78.78,0,1,1,.78.75A.73.73,0,0,1,49.47,79.3Z" transform="translate(0 0)"/><path id="path1103" class="cls-12" d="M52.37,79.08c0-.25-.16-.37-.47-.37h-.4v.75h.4C52.21,79.46,52.37,79.3,52.37,79.08Zm0,1-.34-.47h-.53v.47h-.16V78.58h.56c.38,0,.59.19.59.5a.46.46,0,0,1-.34.47l.38.5Z" transform="translate(0 0)"/><path id="path1104" class="cls-12" d="M52.9,78.58h.15v1.47H52.9Z" transform="translate(0 0)"/><path id="path1105" class="cls-12" d="M54.61,79.93v.12H53.4V80l1-1.25h-1v-.13h1.18v.1l-1,1.25Z" transform="translate(0 0)"/><path id="path1106" class="cls-12" d="M55.8,79.52l-.34-.78-.35.78Zm.06.12h-.81l-.19.41h-.15l.68-1.47h.16l.68,1.47h-.15Z" transform="translate(0 0)"/><path id="path1107" class="cls-12" d="M57.51,79.74l.1.09a.65.65,0,0,1-.53.22l0,.09a.18.18,0,0,1,.19.19c0,.13-.09.19-.25.19a.22.22,0,0,1-.18-.06l0-.1a.18.18,0,0,0,.12,0c.09,0,.13,0,.13-.09s0-.09-.13-.09h-.06l0-.16a.72.72,0,0,1-.69-.75.76.76,0,0,1,.78-.75.65.65,0,0,1,.53.22l-.09.1a.59.59,0,0,0-.44-.19.6.6,0,0,0-.62.62.63.63,0,0,0,.62.63A.67.67,0,0,0,57.51,79.74Z" transform="translate(0 0)"/><path id="path1108" class="cls-12" d="M58.17,78.43h-.1a.19.19,0,0,1,.19-.22c.13,0,.19.16.28.16s.09-.07.13-.13h.09a.2.2,0,0,1-.19.22c-.12,0-.18-.16-.28-.16A.12.12,0,0,0,58.17,78.43Zm.59,1.09-.34-.78-.35.78Zm.06.12H58l-.19.41h-.15l.68-1.47h.16l.69,1.47H59Z" transform="translate(0 0)"/><path id="path1109" class="cls-12" d="M60.66,79.3a.63.63,0,0,0-1.25,0,.63.63,0,0,0,.63.63A.61.61,0,0,0,60.66,79.3Zm-1.4,0a.78.78,0,1,1,.78.75A.73.73,0,0,1,59.26,79.3Z" transform="translate(0 0)"/><path id="path1110" class="cls-12" d="M43,82a.53.53,0,0,0,.59-.56.55.55,0,0,0-.59-.56h-.41V82Zm-.56-1.27H43a.69.69,0,1,1,0,1.37h-.56Z" transform="translate(0 0)"/><path id="path1111" class="cls-12" d="M45.23,81.48a.55.55,0,0,0-.59-.56.57.57,0,0,0-.59.56.54.54,0,0,0,.59.56A.56.56,0,0,0,45.23,81.48Zm-1.31,0a.72.72,0,0,1,1.44,0,.71.71,0,0,1-.72.72A.74.74,0,0,1,43.92,81.48Z" transform="translate(0 0)"/><path id="path1112" class="cls-12" d="M45.57,82l.07-.12a.7.7,0,0,0,.46.15c.25,0,.38-.09.38-.25,0-.37-.84-.15-.84-.65,0-.22.15-.37.49-.37a.73.73,0,0,1,.44.12l-.06.13a.82.82,0,0,0-.38-.13c-.24,0-.37.13-.37.25,0,.37.84.16.84.65,0,.22-.15.38-.53.38A.58.58,0,0,1,45.57,82Z" transform="translate(0 0)"/><path id="path1113" class="cls-12" d="M47.32,82l.06-.12a.73.73,0,0,0,.47.15c.25,0,.37-.09.37-.25,0-.37-.84-.15-.84-.65,0-.22.16-.37.5-.37a.75.75,0,0,1,.44.12l-.07.13a.79.79,0,0,0-.37-.13c-.25,0-.37.13-.37.25,0,.37.84.16.84.65,0,.22-.16.38-.53.38A.53.53,0,0,1,47.32,82Z" transform="translate(0 0)"/><path id="path1114" class="cls-12" d="M49.66,82v.13h-1V80.8h.94v.12h-.81v.5h.71v.13h-.71v.53h.84Z" transform="translate(0 0)"/><path id="path1115" class="cls-12" d="M50.94,81.27c0-.22-.16-.35-.44-.35h-.38v.69h.38C50.78,81.61,50.94,81.48,50.94,81.27Zm0,.9-.32-.44h-.5v.44H50V80.8h.53c.34,0,.56.19.56.47a.43.43,0,0,1-.31.43l.34.47Z" transform="translate(0 0)"/><path id="path1116" class="cls-12" d="M52.59,80.77,52,82.14h-.15l-.63-1.37h.16L51.87,82l.53-1.21Z" transform="translate(0 0)"/><path id="path1117" class="cls-12" d="M52.77,80.77h.16v1.37h-.16Z" transform="translate(0 0)"/><path id="path1118" class="cls-12" d="M54.4,81.89l.09.09a.88.88,0,0,1-.5.22l0,.09a.15.15,0,0,1,.15.16.21.21,0,0,1-.21.19c-.07,0-.13,0-.16,0l0-.07a.21.21,0,0,0,.13,0c.09,0,.12,0,.12-.09s0-.09-.12-.09h0l0-.16a.68.68,0,0,1-.66-.68.7.7,0,0,1,.72-.72.69.69,0,0,1,.5.19l-.1.09A.53.53,0,0,0,54,81a.57.57,0,0,0-.59.56.55.55,0,0,0,.59.57A1.11,1.11,0,0,0,54.4,81.89Z" transform="translate(0 0)"/><path id="path1119" class="cls-12" d="M56,81.48a.55.55,0,0,0-.59-.56.57.57,0,0,0-.59.56.54.54,0,0,0,.59.56A.56.56,0,0,0,56,81.48Zm-1.31,0a.72.72,0,1,1,.72.72A.75.75,0,0,1,54.64,81.48Z" transform="translate(0 0)"/><path id="path1120" class="cls-12" d="M56.3,82l.06-.12a.71.71,0,0,0,.47.15c.25,0,.37-.09.37-.25,0-.37-.84-.15-.84-.65,0-.22.15-.37.5-.37a.72.72,0,0,1,.43.12l-.06.13a.79.79,0,0,0-.37-.13c-.25,0-.38.13-.38.25,0,.37.85.16.85.65,0,.22-.16.38-.53.38A.53.53,0,0,1,56.3,82Z" transform="translate(0 0)"/><path id="path1121" class="cls-12" d="M58.73,82a.53.53,0,0,0,.59-.56.55.55,0,0,0-.59-.56h-.41V82Zm-.56-1.27h.56a.69.69,0,1,1,0,1.37h-.56Z" transform="translate(0 0)"/><path id="path1122" class="cls-12" d="M60.79,82v.13h-1V80.8h.93v.12h-.81v.5h.72v.13h-.72v.53h.85Z" transform="translate(0 0)"/><path id="path1123" class="cls-12" d="M43,83.92h.4l-.22-.57Zm.65.65-.09-.28h-.69l-.09.28h-.53L43,82.86h.53l.71,1.71Z" transform="translate(0 0)"/><path id="path1124" class="cls-12" d="M44.26,82.86h.5v1.3h.72v.44H44.23V82.86Z" transform="translate(0 0)"/><path id="path1125" class="cls-12" d="M45.7,82.86h.5v1.71h-.5Z" transform="translate(0 0)"/><path id="path1126" class="cls-12" d="M46.48,82.86H47l.47,1,.46-1h.56v1.71H48.1v-1l-.41.84h-.34l-.4-.84v1h-.44V82.86Z" transform="translate(0 0)"/><path id="path1127" class="cls-12" d="M48.82,82.86h1.4v.4h-.91v.28h.81V84h-.81v.28h.94v.4H48.82Z" transform="translate(0 0)"/><path id="path1128" class="cls-12" d="M51.65,82.86h.47v1.71h-.44l-.71-1v1H50.5V82.86h.44l.71,1Z" transform="translate(0 0)"/><path id="path1129" class="cls-12" d="M52.28,82.86H53.8v.4h-.5v1.31h-.53V83.26h-.49v-.4Z" transform="translate(0 0)"/><path id="path1130" class="cls-12" d="M54.36,83.92h.41l-.22-.57Zm.66.65-.09-.28h-.69l-.09.28h-.53l.74-1.71h.53l.72,1.71Z" transform="translate(0 0)"/><path id="path1131" class="cls-12" d="M56.7,84.1a.47.47,0,0,0,.19-.15l.28.31a2.69,2.69,0,0,1-.28.22.75.75,0,0,1-.34.09l0,.12c.13,0,.22.1.22.19a.19.19,0,0,1-.09.19.6.6,0,0,1-.22.06.94.94,0,0,1-.28-.06l.06-.22a.86.86,0,0,0,.13,0h.06l0,0s0,0,0,0h-.16l.07-.22a1.12,1.12,0,0,1-.38-.15,1,1,0,0,1-.25-.32.87.87,0,0,1-.09-.4.91.91,0,0,1,.12-.47.88.88,0,0,1,.35-.31,1.33,1.33,0,0,1,.46-.13.9.9,0,0,1,.38.1.73.73,0,0,1,.31.22l-.28.34a.7.7,0,0,0-.19-.16.42.42,0,0,0-.43,0,.35.35,0,0,0-.16.16.57.57,0,0,0-.06.25.82.82,0,0,0,.06.25.33.33,0,0,0,.16.15.44.44,0,0,0,.21.07A.48.48,0,0,1,56.7,84.1Z" transform="translate(0 0)"/><path id="path1132" class="cls-12" d="M57.92,83.92h.4l-.22-.57Zm.65-1.28a.18.18,0,0,1-.18.09.12.12,0,0,1-.1,0s-.06,0-.12-.06l-.1,0s-.06,0-.06.09h-.28a.77.77,0,0,1,.06-.31.2.2,0,0,1,.19-.1.18.18,0,0,1,.12,0s.07,0,.13.06l.06,0h0s0,0,.07,0,0,0,0-.06h.28A2.11,2.11,0,0,0,58.57,82.64Zm0,1.93-.09-.28h-.69l-.09.28h-.53l.75-1.71h.53l.71,1.71Z" transform="translate(0 0)"/><path id="path1133" class="cls-12" d="M59.85,83.32a.49.49,0,0,0-.16.16.57.57,0,0,0-.06.25.82.82,0,0,0,.06.25.46.46,0,0,0,.16.15.48.48,0,0,0,.22.07.7.7,0,0,0,.22-.07.36.36,0,0,0,.15-.15.61.61,0,0,0,.06-.25.71.71,0,0,0-.06-.25.39.39,0,0,0-.15-.16.51.51,0,0,0-.22-.06A.28.28,0,0,0,59.85,83.32Zm.69-.37a.85.85,0,0,1,.34.31.79.79,0,0,1,.12.47.94.94,0,0,1-.12.47.85.85,0,0,1-.34.31,1.42,1.42,0,0,1-.47.12.79.79,0,0,1-.47-.12,1.29,1.29,0,0,1-.34-.31.72.72,0,0,1-.13-.47.84.84,0,0,1,.13-.47A.85.85,0,0,1,59.6,83a1.38,1.38,0,0,1,.47-.13A1,1,0,0,1,60.54,83Z" transform="translate(0 0)"/><path id="path1134" class="cls-12" d="M49.53,76.81a.27.27,0,0,1-.15,0c-.07-.07-.13-.1-.19-.16s-.19-.15-.31-.22a1.38,1.38,0,0,0-.25-.15,3.32,3.32,0,0,0-.59-.31l-.38-.19a1.82,1.82,0,0,0-.37-.13h-.06s-.07,0-.07,0a.12.12,0,0,0,0,.1c.07,0,.13,0,.19.06a.79.79,0,0,1,.28.13l.56.28.31.18.32.22c.09.06.15.13.25.19l.12.09a.36.36,0,0,1,.09.13s0,0,0,0-.12-.06-.18-.1a1.23,1.23,0,0,0-.22-.15c-.1-.06-.16-.13-.25-.19l-.31-.19a4.35,4.35,0,0,1-.53-.28,1.51,1.51,0,0,0-.31-.12l-.32-.09a.11.11,0,0,0-.09,0s0,.06,0,.09.06,0,.09,0,.25.09.38.16a4.51,4.51,0,0,1,.44.22c.09.06.18.09.28.15l.37.25a.7.7,0,0,1,.16.13c.06.06.12.09.18.15a.53.53,0,0,1,.1.13v.06c-.1,0-.16-.1-.25-.13a.66.66,0,0,1-.19-.15l-.31-.22a.16.16,0,0,0-.13-.06c-.18-.1-.34-.19-.53-.28l-.43-.19L47,76.22s-.09,0-.09,0,0,.06.06.09a1,1,0,0,1,.28.13,3,3,0,0,1,.31.15,2.4,2.4,0,0,1,.37.22,2.13,2.13,0,0,1,.25.16l.28.18a2.09,2.09,0,0,0,.32.25s.06.06.06.09,0,.07,0,0-.07,0-.1,0-.06-.06-.09-.06a.74.74,0,0,1-.16-.12,1,1,0,0,0-.21-.16.59.59,0,0,0-.22-.12c-.1-.07-.19-.1-.28-.16a1.31,1.31,0,0,0-.28-.12,1.35,1.35,0,0,0-.41-.16l-.25-.09a1.18,1.18,0,0,1-.25-.1.36.36,0,0,1-.15-.15v-.1c0-.06,0-.12-.07-.15a.23.23,0,0,0-.15-.06c-.13,0-.22,0-.34,0H44.76c-.09,0-.15,0-.25,0s-.18,0-.28.06-.09,0-.15,0a2.12,2.12,0,0,0-.41.12.25.25,0,0,0-.12.07s-.06,0-.1,0l-.25.09c-.09,0-.15.1-.24.13a.11.11,0,0,0-.07,0c-.09.06-.18.09-.28.15a.88.88,0,0,1-.28.16c-.06.06-.15.09-.22.15s-.09.1-.15.13a.3.3,0,0,1-.16,0,.44.44,0,0,1-.19,0,.28.28,0,0,1-.15-.37.43.43,0,0,1,.19-.25l.28-.19a.51.51,0,0,0,.18-.13l.22-.09c.1,0,.19-.09.28-.12h0a4.74,4.74,0,0,1,.78-.25,1.45,1.45,0,0,1,.35-.07l.24-.06a.4.4,0,0,0,.19,0h.06c.1,0,.19,0,.32,0h.65a1.09,1.09,0,0,1,.31,0,.56.56,0,0,1,.22,0c.09,0,.22,0,.31.06s.13,0,.19,0,.09,0,.16,0a.32.32,0,0,0,.21-.13s0-.06.07-.09a.16.16,0,0,1,.12-.06.52.52,0,0,1,.31,0l.16.06c.12,0,.25.09.34.12s.25.1.37.16a4.5,4.5,0,0,1,.44.22l.19.09a2,2,0,0,1,.31.22l.37.28.19.19C49.5,76.75,49.5,76.78,49.53,76.81Z" transform="translate(0 0)"/><path id="path1135" class="cls-12" d="M41.18,77.4c0,.09,0,.19,0,.28a1.09,1.09,0,0,1,0,.31,2.06,2.06,0,0,1-.13.47l-.09.28a2,2,0,0,1-.28.59l-.19.19a.53.53,0,0,1-.15.12l-.16.1-.16.09c-.06,0-.12,0-.18.06a.46.46,0,0,0-.25.22c0,.06,0,.16-.06.25a1.34,1.34,0,0,0,0,.34v.85c0,.12,0,.25,0,.34a.89.89,0,0,0,0,.28c0,.06,0,.16,0,.22a.18.18,0,0,0,0,.12s0,0,0,.06a1.16,1.16,0,0,0,0,.16c0,.16.1.31.13.47s.06.15.09.22a1.13,1.13,0,0,0,.12.25c0,.06,0,.12.07.15l.09.19a.74.74,0,0,0,.13.22c.06.09.09.15.15.25s0,.06.06.12l.1.13a.37.37,0,0,1,.12.25c0,.06,0,.12,0,.18a.37.37,0,0,1-.12.28.22.22,0,0,1-.25,0,.4.4,0,0,1-.31-.25,2.54,2.54,0,0,1-.16-.28c0-.09-.09-.15-.12-.25a1,1,0,0,0-.07-.15l-.09-.19s0,0,0-.06L39.53,84c0-.12-.1-.25-.13-.37v0c0-.12-.06-.24-.09-.4a1.93,1.93,0,0,1-.06-.41,1,1,0,0,1,0-.34c0-.09,0-.22,0-.31v-.75c0-.09,0-.19,0-.28V81c0-.09,0-.15,0-.25s0-.15,0-.21,0-.13,0-.19a2.18,2.18,0,0,0,.06-.22.7.7,0,0,0,0-.25.59.59,0,0,0-.12-.22,1.06,1.06,0,0,1-.1-.12,1,1,0,0,1-.09-.28v-.16a.38.38,0,0,1,0-.18,1.93,1.93,0,0,1,.12-.41c.07-.16.16-.31.25-.47s.13-.18.22-.28l.19-.19c.09-.06.15-.15.25-.21a1.83,1.83,0,0,1,.53-.28c.06,0,.12,0,.19,0a.39.39,0,0,1,.31.09l.06.06C41.15,77.28,41.15,77.34,41.18,77.4Z" transform="translate(0 0)"/><path id="path1136" class="cls-12" d="M41.43,85.72a5.75,5.75,0,0,0,7.39.07c.18-.16.53-.32.68-.1s-.09.59-.34.75a7.11,7.11,0,0,1-1.81.87,5.18,5.18,0,0,1-1.25.25,2.64,2.64,0,0,1-2.49.5c-2.43-.68-2.68-2-2.59-2.27h0C41.05,85.63,41.27,85.6,41.43,85.72Z" transform="translate(0 0)"/><path id="path1142" class="cls-13" d="M35,25.06c-.63,1.22-.91,2.34-.66,2.46h0c.25.13,1-.77,1.56-2h0c.62-1.22.91-2.34.66-2.46h-.07c-.28,0-.93.84-1.49,2Z" transform="translate(0 0)"/><path id="path1149" class="cls-14" d="M31.7,22.29c0,.28,1,.68,2.37.9h0c1.34.22,2.49.16,2.53-.12h0c0-.28-1-.69-2.37-.91h0a9.66,9.66,0,0,0-1.5-.12h0c-.62,0-1,.09-1,.25Z" transform="translate(0 0)"/><path id="path1156" class="cls-15" d="M32.92,26.5c-.5,1.27-.69,2.4-.44,2.49h0c.25.09.87-.84,1.37-2.12h0c.5-1.28.69-2.4.44-2.49h0c-.28,0-.87.9-1.34,2.12Z" transform="translate(0 0)"/><path id="path1163" class="cls-16" d="M31.11,23.66h0c-1,0-1.75.16-1.75.37h0c0,.28,1.06.6,2.44.69h0c1.37.09,2.49-.06,2.52-.34h0c0-.28-1.06-.6-2.43-.69h0A7.32,7.32,0,0,0,31.11,23.66Z" transform="translate(0 0)"/><path id="path1170" class="cls-17" d="M31,28.12c-.37,1.31-.46,2.46-.21,2.52h0c.28.1.81-.93,1.18-2.24h0c.37-1.31.47-2.46.22-2.53h0c-.28,0-.78,1-1.16,2.25Z" transform="translate(0 0)"/><path id="path1177" class="cls-18" d="M29.86,25.41h-.22c-1.37,0-2.49.28-2.46.56h0c0,.28,1.12.5,2.5.46h0c1.37,0,2.49-.28,2.46-.56h0C32.14,25.62,31.14,25.41,29.86,25.41Z" transform="translate(0 0)"/><path id="path1184" class="cls-19" d="M30.11,27.59h0c-.28,0-.71,1-1,2.34h0c-.28,1.34-.25,2.49,0,2.52h0c.28.06.71-1,1-2.34h0c.25-1.34.25-2.49,0-2.52Z" transform="translate(0 0)"/><path id="path1191" class="cls-20" d="M28.71,27.28h0c-.34,0-.72,0-1.12.06h0c-1.37.15-2.47.5-2.43.78h0c0,.28,1.15.4,2.52.25h0c1.37-.16,2.43-.5,2.43-.78h0C30.11,27.37,29.52,27.28,28.71,27.28Z" transform="translate(0 0)"/><path id="path1198" class="cls-21" d="M27.46,31.86c-.15,1.37,0,2.49.25,2.52h0c.28,0,.63-1.06.78-2.4h0c.16-1.37,0-2.49-.25-2.52h0c-.28,0-.62,1.06-.78,2.4Z" transform="translate(0 0)"/><path id="path1205" class="cls-22" d="M25.72,29.4c-1.34.24-2.4.71-2.34,1h0c.06.28,1.18.28,2.52,0h0c1.34-.25,2.4-.71,2.34-1h0c0-.16-.34-.22-.84-.22a9,9,0,0,0-1.68.19Z" transform="translate(0 0)"/><path id="path1212" class="cls-23" d="M26.56,31.45h0c-.28,0-.53,1.09-.56,2.47h0c0,1.37.15,2.49.47,2.49h0c.28,0,.52-1.09.56-2.46h0C27,32.57,26.84,31.45,26.56,31.45Z" transform="translate(0 0)"/><path id="path1219" class="cls-24" d="M24,31.64c-1.31.37-2.34.9-2.24,1.18h0c.06.28,1.21.19,2.52-.18h0c1.31-.38,2.34-.91,2.25-1.19h0c0-.09-.22-.15-.53-.15a8.69,8.69,0,0,0-2,.34Z" transform="translate(0 0)"/><path id="path1226" class="cls-25" d="M25,33.63c-.28,0-.44,1.16-.34,2.53h0c.09,1.37.37,2.46.68,2.43h0c.28,0,.44-1.15.35-2.52h0c-.1-1.38-.41-2.44-.69-2.44Z" transform="translate(0 0)"/><path id="path1233" class="cls-26" d="M22.54,34c-1.28.5-2.25,1.12-2.12,1.37h0c.09.28,1.21.09,2.49-.4h0c1.28-.5,2.25-1.13,2.12-1.38h0c0-.09-.15-.12-.37-.12h0a6.89,6.89,0,0,0-2.12.53Z" transform="translate(0 0)"/><path id="path1240" class="cls-27" d="M23.69,35.91c-.28,0-.34,1.18-.12,2.53h0c.21,1.34.59,2.43.87,2.36h0c.28,0,.34-1.18.12-2.52h0c-.18-1.34-.56-2.37-.87-2.37Z" transform="translate(0 0)"/><path id="path1247" class="cls-28" d="M21.26,36.53c-1.25.6-2.12,1.31-2,1.56h0c.13.25,1.22,0,2.47-.62h0c1.24-.59,2.12-1.31,2-1.56h0c0-.06-.12-.09-.25-.09a5.94,5.94,0,0,0-2.21.71Z" transform="translate(0 0)"/><path id="path1254" class="cls-29" d="M22.6,38.28c-.28.06-.25,1.22.09,2.52h0c.31,1.34.81,2.37,1.09,2.31h0c.28-.06.25-1.21-.09-2.52h0c-.34-1.28-.81-2.31-1.09-2.31Z" transform="translate(0 0)"/><path id="path1261" class="cls-30" d="M22.38,38.22h0a5.73,5.73,0,0,0-2.21.9h0c-1.19.72-2,1.47-1.87,1.72h0c.15.24,1.21-.13,2.4-.85h0c1.18-.71,2-1.46,1.87-1.71h0S22.48,38.22,22.38,38.22Z" transform="translate(0 0)"/><path id="path1268" class="cls-31" d="M21.66,40.77c-.28.1-.12,1.22.32,2.53h0c.43,1.31,1,2.27,1.27,2.18h0c.28-.09.13-1.22-.31-2.52h0c-.4-1.25-1-2.19-1.24-2.19h0Z" transform="translate(0 0)"/><path id="path1275" class="cls-32" d="M19.36,41.83c-1.12.81-1.87,1.66-1.72,1.87h0c.16.22,1.22-.25,2.31-1.06h0c1.12-.81,1.87-1.65,1.71-1.87h0a.23.23,0,0,0-.15-.06h0a5.6,5.6,0,0,0-2.15,1.12Z" transform="translate(0 0)"/><path id="path1282" class="cls-33" d="M21,43.33c-.25.12,0,1.21.53,2.49h0c.56,1.25,1.21,2.18,1.46,2.06h0c.25-.12,0-1.22-.53-2.49h0C21.91,44.2,21.32,43.3,21,43.3h0a0,0,0,0,1,0,0Z" transform="translate(0 0)"/><path id="path1289" class="cls-34" d="M20.85,43.27h0a5.28,5.28,0,0,0-2.08,1.27h0c-1,.91-1.72,1.81-1.53,2h0c.19.22,1.18-.34,2.21-1.25h0c1-.9,1.72-1.8,1.53-2h0S20.92,43.27,20.85,43.27Z" transform="translate(0 0)"/><path id="path1296" class="cls-35" d="M20.51,45.92c-.25.12.09,1.21.75,2.43h0c.65,1.21,1.4,2.06,1.65,1.93h0c.25-.12-.09-1.22-.75-2.43h0c-.62-1.12-1.27-2-1.59-2h0s0,0-.06,0Z" transform="translate(0 0)"/><path id="path1303" class="cls-36" d="M18.42,47.35c-1,1-1.56,2-1.34,2.15h0c.22.19,1.16-.44,2.09-1.43h0c1-1,1.56-1.94,1.34-2.15h0a.11.11,0,0,0-.09,0h0a4.9,4.9,0,0,0-2,1.46Z" transform="translate(0 0)"/><path id="path1310" class="cls-37" d="M20.29,48.57c-.25.15.19,1.21.94,2.37h0c.75,1.15,1.56,1.93,1.81,1.77h0c.25-.15-.19-1.21-.94-2.37h0c-.68-1.06-1.43-1.81-1.74-1.81h0s0,0-.07,0Z" transform="translate(0 0)"/><path id="path1317" class="cls-38" d="M18.33,50.16c-.87,1.06-1.37,2.08-1.15,2.24h0c.21.19,1.09-.53,2-1.62h0c.87-1.06,1.37-2.09,1.15-2.25h0a.11.11,0,0,0-.09,0h0a5,5,0,0,0-1.87,1.66Z" transform="translate(0 0)"/><path id="path1324" class="cls-39" d="M20.29,51.18c-.22.19.28,1.19,1.16,2.28h0c.84,1.06,1.74,1.81,2,1.62h0c.22-.19-.28-1.18-1.15-2.27h0c-.78-1-1.56-1.66-1.87-1.66h0c-.07,0-.07,0-.1,0Z" transform="translate(0 0)"/><path id="path1331" class="cls-40" d="M18.49,53c-.78,1.15-1.19,2.18-1,2.34h0c.25.16,1.06-.62,1.81-1.78h0c.78-1.15,1.18-2.18,1-2.34h0s0,0-.06,0h0c-.31,0-1.06.78-1.74,1.81Z" transform="translate(0 0)"/><path id="path1338" class="cls-41" d="M20.51,53.83c-.22.19.41,1.16,1.34,2.16h0c.94,1,1.87,1.65,2.09,1.43h0c.22-.19-.41-1.15-1.34-2.15h0a4.71,4.71,0,0,0-2-1.47h0s-.06,0-.09,0Z" transform="translate(0 0)"/><path id="path1345" class="cls-42" d="M18.86,55.74c-.66,1.21-1,2.27-.75,2.43h0c.25.12,1-.72,1.65-1.94h0c.66-1.21,1-2.27.75-2.43h-.06c-.28,0-1,.84-1.59,1.94Z" transform="translate(0 0)"/><path id="path1352" class="cls-43" d="M21,56.42c-.19.22.5,1.12,1.53,2h0c1,.9,2,1.46,2.21,1.24h0c.19-.21-.5-1.12-1.53-2h0a5,5,0,0,0-2.09-1.31h0c-.06,0-.12,0-.12.06Z" transform="translate(0 0)"/><path id="path1359" class="cls-44" d="M20.92,56.42h0c-.28,0-.91.91-1.44,2.09h0c-.56,1.25-.81,2.37-.53,2.49h0c.25.13.94-.81,1.47-2h0c.56-1.25.81-2.37.53-2.5h0S21,56.42,20.92,56.42Z" transform="translate(0 0)"/><path id="path1366" class="cls-45" d="M21.63,59c-.15.22.6,1.06,1.69,1.9h0c1.09.81,2.15,1.28,2.3,1.06h0c.16-.22-.59-1.06-1.68-1.9h0a5.1,5.1,0,0,0-2.15-1.12h0a.26.26,0,0,0-.16.06Z" transform="translate(0 0)"/><path id="path1373" class="cls-46" d="M20.36,61.16c-.44,1.31-.6,2.43-.32,2.52h0c.28.1.85-.87,1.31-2.18h0c.44-1.31.6-2.43.31-2.52h0c-.31,0-.84.93-1.27,2.18Z" transform="translate(0 0)"/><path id="path1380" class="cls-47" d="M22.76,61.38h0a.26.26,0,0,0-.19.06h0c-.16.25.68,1,1.87,1.75h0c1.18.71,2.24,1.09,2.4.84h0c.15-.25-.69-1-1.84-1.75h0A7.17,7.17,0,0,0,22.76,61.38Z" transform="translate(0 0)"/><path id="path1387" class="cls-48" d="M21.45,63.75c-.35,1.34-.38,2.46-.1,2.52h0c.28.06.78-1,1.09-2.27h0c.35-1.34.38-2.47.1-2.53h0c-.28,0-.75,1-1.06,2.28Z" transform="translate(0 0)"/><path id="path1394" class="cls-49" d="M23.91,63.75h0c-.16,0-.22,0-.25.09h0c-.13.25.78,1,2,1.56h0c1.22.62,2.34.9,2.47.65h0c.12-.25-.78-1-2-1.56h0A6.26,6.26,0,0,0,23.91,63.75Z" transform="translate(0 0)"/><path id="path1401" class="cls-50" d="M23.63,63.84h0c-.28,0-.66,1.06-.87,2.37h0c-.22,1.34-.16,2.49.12,2.52h0c.28,0,.69-1,.9-2.36h0c.22-1.35.16-2.47-.15-2.53Z" transform="translate(0 0)"/><path id="path1408" class="cls-51" d="M25.31,66h0c-.19,0-.31,0-.34.13h0c-.09.28.84.87,2.12,1.37h0c1.28.5,2.4.68,2.49.44h0c.1-.29-.84-.88-2.12-1.38h0A6.28,6.28,0,0,0,25.31,66Z" transform="translate(0 0)"/><path id="path1415" class="cls-52" d="M25,66.15h0c-.28,0-.59,1.09-.69,2.43h0c-.09,1.37.07,2.49.35,2.52h0c.28,0,.59-1.09.68-2.43h0c.1-1.37-.06-2.52-.34-2.52Z" transform="translate(0 0)"/><path id="path1422" class="cls-53" d="M26.5,68.3c-.1.28.93.81,2.24,1.18h0c1.31.38,2.46.47,2.53.22h0c.09-.28-.94-.81-2.25-1.18h0a7.65,7.65,0,0,0-2-.38h0c-.28,0-.46.06-.49.16Z" transform="translate(0 0)"/><path id="path1429" class="cls-54" d="M26.5,68.3h0c-.28,0-.5,1.12-.47,2.49h0c0,1.37.28,2.5.56,2.46h0c.28,0,.5-1.12.47-2.49h0C27,69.42,26.78,68.3,26.5,68.3Z" transform="translate(0 0)"/><path id="path1436" class="cls-55" d="M28.18,70.32c-.06.28,1,.72,2.34,1h0c1.34.28,2.49.25,2.52,0h0c.06-.28-1-.72-2.34-1h0A10,10,0,0,0,29,70.11h0c-.47,0-.78.09-.81.21Z" transform="translate(0 0)"/><path id="path1443" class="cls-56" d="M28.18,70.32h0c-.28,0-.41,1.16-.25,2.53h0c.16,1.37.5,2.46.78,2.43h0c.28,0,.4-1.15.25-2.52h0C28.8,71.42,28.46,70.32,28.18,70.32Z" transform="translate(0 0)"/><path id="path1450" class="cls-57" d="M30.05,72.19c0,.29,1.06.63,2.4.78h0c1.37.16,2.49.07,2.53-.25h0c0-.28-1.06-.62-2.41-.77h0a7,7,0,0,0-1.18-.07h0c-.78,0-1.34.13-1.34.31Z" transform="translate(0 0)"/><path id="path1457" class="cls-58" d="M30.05,72.19h0c-.31.07-.31,1.19-.06,2.56h0c.25,1.34.71,2.4,1,2.34h0c.28-.06.28-1.19,0-2.53h0C30.77,73.22,30.33,72.19,30.05,72.19Z" transform="translate(0 0)"/><path id="path1464" class="cls-59" d="M32,73.91c0,.28,1.1.53,2.47.56h0c1.37,0,2.49-.16,2.49-.47h0c0-.28-1.09-.53-2.46-.56h-.28c-1.22,0-2.18.19-2.22.47Z" transform="translate(0 0)"/><path id="path1471" class="cls-60" d="M32,73.91c-.28.06-.18,1.21.19,2.52h0c.38,1.31.91,2.34,1.19,2.25h0c.28-.1.18-1.22-.19-2.53h0c-.34-1.27-.87-2.24-1.19-2.24Z" transform="translate(0 0)"/><path id="path1478" class="cls-61" d="M32.08,73.91c0,.28,1.09.53,2.46.56h0c1.37,0,2.49-.19,2.49-.47h0c0-.28-1.09-.53-2.46-.56h-.19c-1.28,0-2.3.22-2.3.47Z" transform="translate(0 0)"/><path id="path1485" class="cls-62" d="M32.11,73.91h0c-.28.09-.19,1.21.21,2.52h0c.38,1.31.94,2.31,1.19,2.25h0c.28-.1.19-1.22-.22-2.53h0C32.92,74.88,32.39,73.91,32.11,73.91Z" transform="translate(0 0)"/><path id="path1492" class="cls-63" d="M33.42,74.88c-.19.21.56,1.09,1.65,1.93h0c1.09.84,2.12,1.34,2.27,1.12h0c.19-.22-.56-1.09-1.65-1.93h0a5.41,5.41,0,0,0-2.12-1.16h0c-.09,0-.15,0-.15,0Z" transform="translate(0 0)"/><path id="path1499" class="cls-64" d="M63.37,23.07c-.25.12,0,1.21.66,2.46h0c.62,1.22,1.31,2.12,1.56,2h0c.25-.12,0-1.21-.66-2.46h0c-.56-1.15-1.21-2-1.49-2h0s-.07,0-.07,0Z" transform="translate(0 0)"/><path id="path1506" class="cls-65" d="M65.74,22.16c-1.34.22-2.43.63-2.37.91h0c0,.28,1.19.34,2.53.12h0c1.34-.22,2.43-.62,2.37-.9h0c0-.16-.44-.25-1-.25h0a9.4,9.4,0,0,0-1.5.12Z" transform="translate(0 0)"/><path id="path1513" class="cls-66" d="M65.65,24.38c-.28.09-.06,1.21.43,2.49h0c.5,1.28,1.13,2.24,1.38,2.12h0c.28-.09.06-1.22-.44-2.49h0c-.47-1.22-1.06-2.15-1.34-2.15h0a0,0,0,0,1,0,0Z" transform="translate(0 0)"/><path id="path1520" class="cls-67" d="M68.89,23.66h0a6.52,6.52,0,0,0-.78,0h0c-1.37.09-2.46.41-2.43.69h0c0,.28,1.15.43,2.52.34h0c1.38-.09,2.47-.41,2.44-.69h0C70.6,23.82,69.89,23.66,68.89,23.66Z" transform="translate(0 0)"/><path id="path1527" class="cls-68" d="M67.83,25.87c-.28.1-.19,1.22.22,2.53h0c.37,1.31.93,2.3,1.18,2.24h0c.28-.06.19-1.21-.22-2.52h0c-.37-1.28-.87-2.25-1.15-2.25h0Z" transform="translate(0 0)"/><path id="path1534" class="cls-69" d="M70.11,25.41h0c-1.31,0-2.31.18-2.31.46h0c0,.28,1.09.53,2.46.56h0c1.37,0,2.5-.18,2.5-.46h0c0-.28-1.1-.53-2.47-.56h-.18Z" transform="translate(0 0)"/><path id="path1541" class="cls-70" d="M69.86,27.59h0c-.32.06-.32,1.18,0,2.55h0c.28,1.34.71,2.4,1,2.34h0c.28-.06.28-1.18,0-2.52h0C70.57,28.62,70.14,27.59,69.86,27.59Z" transform="translate(0 0)"/><path id="path1548" class="cls-71" d="M71.26,27.28h0c-.84,0-1.4.12-1.4.31h0c0,.28,1.06.62,2.43.78h0c1.37.15,2.49,0,2.52-.25h0c0-.28-1.06-.63-2.43-.78h0A7.39,7.39,0,0,0,71.26,27.28Z" transform="translate(0 0)"/><path id="path1555" class="cls-72" d="M71.73,29.43c-.28,0-.38,1.15-.25,2.52h0c.15,1.37.5,2.43.78,2.4h0c.28,0,.37-1.15.25-2.52h0c-.16-1.31-.5-2.4-.78-2.4Z" transform="translate(0 0)"/><path id="path1562" class="cls-73" d="M71.73,29.43c-.07.28,1,.71,2.33,1h0c1.35.25,2.5.25,2.53,0h0c.06-.28-1-.72-2.34-1h0a9.07,9.07,0,0,0-1.71-.19c-.47,0-.81.09-.81.22Z" transform="translate(0 0)"/><path id="path1569" class="cls-74" d="M73.41,31.45h0c-.28,0-.5,1.12-.47,2.5h0c0,1.37.28,2.49.56,2.46h0c.28,0,.5-1.12.47-2.49h0C73.94,32.57,73.69,31.45,73.41,31.45Z" transform="translate(0 0)"/><path id="path1576" class="cls-75" d="M73.41,31.45c-.06.28.94.81,2.24,1.19h0c1.31.37,2.47.46,2.53.18h0c.09-.28-.94-.81-2.24-1.18h0a8.53,8.53,0,0,0-2-.34c-.31,0-.5.06-.53.15Z" transform="translate(0 0)"/><path id="path1583" class="cls-76" d="M74.25,36.07c-.09,1.37.06,2.49.34,2.52h0c.29,0,.6-1.09.69-2.43h0c.09-1.37-.06-2.49-.34-2.53h0c-.31,0-.59,1.06-.69,2.44Z" transform="translate(0 0)"/><path id="path1590" class="cls-77" d="M74.94,33.63c-.1.25.84.88,2.12,1.38h0c1.28.49,2.4.68,2.49.4h0c.09-.25-.84-.87-2.12-1.37h0a6.84,6.84,0,0,0-2.15-.53h0c-.19,0-.31,0-.34.12Z" transform="translate(0 0)"/><path id="path1597" class="cls-78" d="M75.37,38.28c-.21,1.37-.15,2.49.13,2.52h0c.28,0,.68-1,.87-2.36h0c.22-1.38.16-2.5-.12-2.53h0c-.25,0-.66,1-.85,2.37Z" transform="translate(0 0)"/><path id="path1604" class="cls-79" d="M76.25,35.91c-.13.25.78.94,2,1.56h0c1.25.59,2.34.87,2.46.62h0c.13-.25-.77-.93-2-1.56h0a7,7,0,0,0-2.18-.71c-.16,0-.25,0-.28.09Z" transform="translate(0 0)"/><path id="path1611" class="cls-80" d="M76.28,40.59c-.31,1.34-.38,2.46-.1,2.52h0c.29.06.75-1,1.1-2.31h0c.31-1.34.37-2.46.09-2.52h0c-.28,0-.75,1-1.06,2.31Z" transform="translate(0 0)"/><path id="path1618" class="cls-81" d="M77.59,38.22h0a.26.26,0,0,0-.19.06h0c-.16.25.69,1,1.87,1.71h0c1.19.72,2.24,1.09,2.4.85h0c.16-.25-.68-1-1.87-1.72h0A6.18,6.18,0,0,0,77.59,38.22Z" transform="translate(0 0)"/><path id="path1625" class="cls-82" d="M77,43c-.43,1.3-.59,2.43-.31,2.52h0c.28.09.84-.9,1.28-2.18h0c.44-1.31.59-2.43.31-2.53h0c-.28,0-.81.94-1.25,2.19Z" transform="translate(0 0)"/><path id="path1632" class="cls-83" d="M78.27,40.77c-.15.22.6,1.06,1.72,1.87h0c1.12.81,2.15,1.28,2.3,1.06h0c.16-.21-.59-1.06-1.71-1.87h0a5.71,5.71,0,0,0-2.15-1.09h0a.15.15,0,0,0-.16,0Z" transform="translate(0 0)"/><path id="path1639" class="cls-84" d="M77.49,45.39c-.56,1.24-.78,2.37-.53,2.49h0c.25.12.91-.81,1.47-2.06h0c.56-1.24.78-2.37.53-2.49H78.9c-.25,0-.88.87-1.41,2.06Z" transform="translate(0 0)"/><path id="path1646" class="cls-85" d="M79.11,43.27h0c-.06,0-.09,0-.12,0h0c-.19.22.5,1.12,1.53,2h0c1,.91,2,1.47,2.21,1.25h0c.19-.22-.5-1.12-1.53-2h0A5.43,5.43,0,0,0,79.11,43.27Z" transform="translate(0 0)"/><path id="path1653" class="cls-86" d="M77.81,47.85c-.66,1.21-1,2.31-.75,2.43h0c.25.13,1-.72,1.65-1.93h0c.65-1.22,1-2.31.75-2.43H79.4c-.32,0-1,.81-1.59,1.93Z" transform="translate(0 0)"/><path id="path1660" class="cls-87" d="M79.43,45.92c-.22.18.4,1.15,1.34,2.15h0c1,1,1.9,1.62,2.09,1.43h0c.21-.19-.41-1.15-1.35-2.15h0a4.7,4.7,0,0,0-2-1.46h0a.11.11,0,0,0-.09,0Z" transform="translate(0 0)"/><path id="path1667" class="cls-88" d="M77.87,50.34c-.75,1.16-1.19,2.18-.94,2.37h0c.25.16,1.06-.65,1.81-1.77h0c.75-1.16,1.19-2.19,1-2.37h0s0,0-.07,0h0c-.34,0-1.09.75-1.77,1.81Z" transform="translate(0 0)"/><path id="path1674" class="cls-89" d="M79.68,48.57c-.22.18.31,1.18,1.15,2.24h0c.87,1.06,1.74,1.78,2,1.62h0c.22-.19-.31-1.18-1.15-2.24h0c-.78-1-1.56-1.66-1.87-1.66h0c-.06,0-.09,0-.09,0Z" transform="translate(0 0)"/><path id="path1681" class="cls-90" d="M77.71,52.81c-.87,1.06-1.37,2.08-1.15,2.27h0c.22.19,1.09-.56,2-1.62h0c.88-1.06,1.37-2.09,1.16-2.28h0a.14.14,0,0,0-.1,0h0c-.31,0-1.09.69-1.87,1.66Z" transform="translate(0 0)"/><path id="path1688" class="cls-91" d="M79.68,51.18c-.25.16.18,1.22,1,2.34h0c.78,1.16,1.59,1.94,1.81,1.78h0c.25-.16-.19-1.22-1-2.34h0c-.71-1-1.43-1.81-1.74-1.81h0s0,0-.06,0Z" transform="translate(0 0)"/><path id="path1695" class="cls-92" d="M77.37,55.27c-.94,1-1.56,2-1.34,2.15h0c.22.19,1.15-.44,2.09-1.43h0c.93-1,1.56-2,1.34-2.16h0a.12.12,0,0,0-.1,0h0c-.34,0-1.18.6-2,1.47Z" transform="translate(0 0)"/><path id="path1702" class="cls-93" d="M79.46,53.83c-.25.13.09,1.22.75,2.44h0c.65,1.21,1.4,2,1.65,1.93h0c.25-.13-.1-1.22-.75-2.43h0c-.62-1.13-1.31-1.94-1.59-1.94h0s-.06,0-.06,0Z" transform="translate(0 0)"/><path id="path1709" class="cls-94" d="M76.78,57.67c-1,.9-1.72,1.81-1.53,2h0c.19.22,1.18-.34,2.21-1.24h0c1-.91,1.72-1.81,1.53-2h0s-.06,0-.12,0h0a5,5,0,0,0-2.09,1.28Z" transform="translate(0 0)"/><path id="path1716" class="cls-95" d="M79.05,56.42H79c-.25.13,0,1.22.53,2.5h0c.56,1.24,1.22,2.18,1.47,2h0c.24-.12,0-1.21-.53-2.49h0C80,57.29,79.33,56.42,79.05,56.42Z" transform="translate(0 0)"/><path id="path1723" class="cls-96" d="M76,60c-1.09.81-1.87,1.65-1.69,1.9h0c.16.22,1.22-.25,2.31-1.06h0c1.09-.81,1.87-1.65,1.68-1.9h0a.23.23,0,0,0-.15-.06h0A5.45,5.45,0,0,0,76,60Z" transform="translate(0 0)"/><path id="path1730" class="cls-97" d="M78.3,59c-.28.09-.12,1.21.32,2.52h0c.43,1.31,1,2.28,1.31,2.18h0c.28-.09.12-1.21-.32-2.52h0c-.43-1.25-1-2.18-1.24-2.18H78.3Z" transform="translate(0 0)"/><path id="path1737" class="cls-98" d="M77.21,61.38h0a5.73,5.73,0,0,0-2.18.93h0c-1.18.72-2,1.5-1.84,1.75h0c.16.25,1.22-.13,2.4-.84h0c1.19-.72,2-1.5,1.87-1.75h0A.35.35,0,0,0,77.21,61.38Z" transform="translate(0 0)"/><path id="path1744" class="cls-99" d="M77.43,61.47c-.28.06-.22,1.22.09,2.53h0c.35,1.34.82,2.37,1.1,2.27h0c.28-.06.21-1.21-.1-2.52h0c-.31-1.28-.81-2.31-1.09-2.28Z" transform="translate(0 0)"/><path id="path1751" class="cls-100" d="M76.06,63.75h0a6.12,6.12,0,0,0-2.21.75h0c-1.22.62-2.12,1.3-2,1.55h0c.13.25,1.22,0,2.46-.65h0c1.25-.62,2.12-1.31,2-1.56h0C76.28,63.78,76.18,63.75,76.06,63.75Z" transform="translate(0 0)"/><path id="path1758" class="cls-101" d="M76.31,63.84h0C76,63.9,76,65,76.18,66.37h0c.22,1.34.63,2.43.91,2.36h0c.28,0,.34-1.18.12-2.52h0C77,64.9,76.59,63.84,76.31,63.84Z" transform="translate(0 0)"/><path id="path1765" class="cls-102" d="M74.66,66h0a6.84,6.84,0,0,0-2.15.53h0c-1.28.5-2.25,1.12-2.12,1.37h0c.09.28,1.21.07,2.49-.43h0c1.28-.5,2.24-1.12,2.12-1.37h0C75,66.05,74.84,66,74.66,66Z" transform="translate(0 0)"/><path id="path1772" class="cls-103" d="M75,66.15h0c-.28,0-.44,1.15-.34,2.52h0c.09,1.37.4,2.46.68,2.43h0c.28,0,.44-1.15.35-2.52h0C75.59,67.24,75.28,66.15,75,66.15Z" transform="translate(0 0)"/><path id="path1779" class="cls-104" d="M71,68.52c-1.31.37-2.31.9-2.25,1.18h0c.1.28,1.22.19,2.53-.22h0c1.31-.37,2.34-.93,2.24-1.18h0c0-.1-.22-.16-.53-.16h0a7.69,7.69,0,0,0-2,.38Z" transform="translate(0 0)"/><path id="path1786" class="cls-105" d="M73.47,68.3h0c-.28,0-.53,1.09-.56,2.46h0c0,1.37.19,2.49.47,2.49h0c.28,0,.53-1.09.56-2.46h0C74,69.42,73.75,68.3,73.47,68.3Z" transform="translate(0 0)"/><path id="path1793" class="cls-106" d="M69.23,70.32c-1.34.28-2.4.72-2.33,1h0c.06.28,1.18.28,2.52,0h0c1.34-.28,2.4-.71,2.34-1h0c0-.16-.34-.22-.81-.22h0a6.46,6.46,0,0,0-1.72.18Z" transform="translate(0 0)"/><path id="path1800" class="cls-107" d="M71.79,70.32h0c-.28,0-.62,1.06-.75,2.44h0c-.15,1.37,0,2.49.25,2.52h0c.28,0,.62-1.06.78-2.43h0c.12-1.37,0-2.49-.28-2.53Z" transform="translate(0 0)"/><path id="path1807" class="cls-108" d="M67.39,72c-1.37.15-2.43.5-2.4.78h0c0,.28,1.16.37,2.53.24h0c1.37-.15,2.46-.49,2.4-.77h0c0-.19-.56-.32-1.34-.32h0a4.93,4.93,0,0,0-1.19.07Z" transform="translate(0 0)"/><path id="path1814" class="cls-109" d="M69.92,72.19h0c-.28,0-.72,1-1,2.34h0c-.25,1.34-.25,2.5,0,2.53h0c.28.06.72-1,1-2.34h0c.25-1.34.25-2.46,0-2.53Z" transform="translate(0 0)"/><path id="path1821" class="cls-110" d="M65.4,73.44c-1.37,0-2.49.28-2.46.56h0c0,.28,1.12.5,2.49.47h0c1.37,0,2.49-.28,2.46-.56h0c0-.25-1-.47-2.21-.47H65.4Z" transform="translate(0 0)"/><path id="path1828" class="cls-111" d="M66.71,76.15c-.38,1.31-.47,2.47-.19,2.53h0c.28.06.81-.94,1.19-2.25h0c.37-1.31.46-2.46.18-2.52h0c-.28,0-.78,1-1.15,2.24Z" transform="translate(0 0)"/><path id="path1835" class="cls-112" d="M65.37,73.44c-1.37,0-2.5.28-2.46.56h0c0,.28,1.12.5,2.49.47h0c1.37,0,2.49-.28,2.46-.56h0c0-.28-1-.47-2.31-.47h-.18Z" transform="translate(0 0)"/><path id="path1842" class="cls-113" d="M67.86,73.91h0c-.28,0-.78,1-1.15,2.24h0c-.38,1.31-.5,2.47-.22,2.53h0c.28.09.81-.94,1.18-2.25h0c.38-1.31.47-2.43.19-2.52Z" transform="translate(0 0)"/><path id="path1849" class="cls-114" d="M64.28,76c-1.09.84-1.84,1.71-1.66,1.93h0c.19.22,1.19-.28,2.28-1.12h0c1.09-.84,1.84-1.72,1.65-1.93h0a.2.2,0,0,0-.15-.07h0A6.1,6.1,0,0,0,64.28,76Z" transform="translate(0 0)"/><path id="path1856" class="cls-115" d="M39.31,30.11a22,22,0,0,0-8.39,8h0a22.17,22.17,0,0,0-3.05,11.48h0a23.22,23.22,0,0,0,3,11.69h0a21.37,21.37,0,0,0,8.23,8.16h0a23.55,23.55,0,0,0,11.78,3h0a23.81,23.81,0,0,0,9.92-2.3h0A26.12,26.12,0,0,0,69.33,64h0L61.88,56a17.58,17.58,0,0,1-5.08,3.74h0a12.5,12.5,0,0,1-5.33,1.37h0a9.47,9.47,0,0,1-5.3-1.53h0a10.76,10.76,0,0,1-3.74-4.18h0a12.79,12.79,0,0,1-1.38-6h0a12.79,12.79,0,0,1,1.38-5.95h0a10.25,10.25,0,0,1,3.74-4.15h0a9.69,9.69,0,0,1,5.3-1.5h0A11.31,11.31,0,0,1,57,39.46h0a15.44,15.44,0,0,1,4.9,4.34h0l7.45-8.89a24.42,24.42,0,0,0-8.2-5.67h0a24.83,24.83,0,0,0-9.82-2.12,25.78,25.78,0,0,0-12,3Z" transform="translate(0 0)"/><path id="path1857" class="cls-12" d="M56.67,39.21a11.23,11.23,0,0,0-5.52-1.59,9.71,9.71,0,0,0-5.3,1.5,10.54,10.54,0,0,0-3.74,4.15,13.61,13.61,0,0,0,0,11.9,10.6,10.6,0,0,0,3.74,4.18,9.49,9.49,0,0,0,5.3,1.53,12.54,12.54,0,0,0,5.33-1.37,16.8,16.8,0,0,0,5.08-3.74L69,63.72a26.67,26.67,0,0,1-8.54,6.17,23.76,23.76,0,0,1-21.69-.66,21.3,21.3,0,0,1-8.23-8.16,23.12,23.12,0,0,1-3-11.69,22,22,0,0,1,3.05-11.47,21.51,21.51,0,0,1,8.39-8,24.46,24.46,0,0,1,12-2.93,24.87,24.87,0,0,1,9.82,2.12A23.73,23.73,0,0,1,69,34.73l-7.45,8.88A15.53,15.53,0,0,0,56.67,39.21Z" transform="translate(0 0)"/><g id="Layer1008"><g id="Layer1009"><path id="path1858" class="cls-116" d="M11.75,27.31l.53-.88.41.25-.53.88Zm.78.43.59-1,.41.24-.94,1.53-1.9-1.15.91-1.5.4.25-.59,1Z" transform="translate(0 0)"/><path id="path1859" class="cls-116" d="M14.06,26.28c-.09.12-.19.22-.28.34a2.42,2.42,0,0,1-.28.22l-.25-.37a1,1,0,0,0,.25-.19,1.07,1.07,0,0,0,.22-.25.48.48,0,0,0,.09-.19.11.11,0,0,0,0-.09s-.06,0-.1,0a.41.41,0,0,1-.12.09.74.74,0,0,0-.12.16l-.16.15a.54.54,0,0,1-.19.13.47.47,0,0,1-.22,0,.32.32,0,0,1-.21-.09.5.5,0,0,1-.19-.25.69.69,0,0,1,0-.35,1.42,1.42,0,0,1,.19-.43,1.29,1.29,0,0,1,.25-.28.61.61,0,0,1,.28-.19l.25.37a.52.52,0,0,0-.22.16.56.56,0,0,0-.16.19.46.46,0,0,0-.09.18c0,.07,0,.1,0,.1a.06.06,0,0,0,.09,0,.36.36,0,0,1,.13-.1.65.65,0,0,0,.12-.15l.16-.16a.63.63,0,0,1,.18-.12.51.51,0,0,1,.22,0,.33.33,0,0,1,.22.09.38.38,0,0,1,.19.25.65.65,0,0,1,0,.34A3.63,3.63,0,0,0,14.06,26.28Z" transform="translate(0 0)"/><path id="path1860" class="cls-116" d="M15.09,24.78a.67.67,0,0,1-.44.31.63.63,0,0,1-.5-.12l-1.21-.87.34-.5,1.18.87c.07,0,.1.06.16,0a.16.16,0,0,0,.12-.06.37.37,0,0,0,.07-.19l.43.13a.43.43,0,0,1-.06.18A.44.44,0,0,1,15.09,24.78Zm-1.56.06-.38-.25.72-1,.38.25Z" transform="translate(0 0)"/><path id="path1861" class="cls-116" d="M16.05,23.47l-.25-.18-.09,0-.47-.37a.21.21,0,0,0-.22-.06.29.29,0,0,0-.21.18.5.5,0,0,0-.13.22.74.74,0,0,0,0,.25l-.44-.09a.9.9,0,0,1,.1-.38,1.24,1.24,0,0,1,.22-.34,1.05,1.05,0,0,1,.56-.4.88.88,0,0,1,.62.18l.75.6Zm-.31.41a.68.68,0,0,1-.28.22.48.48,0,0,1-.28.06.33.33,0,0,1-.25-.1.31.31,0,0,1-.15-.21.44.44,0,0,1,0-.32,1.28,1.28,0,0,1,.21-.37l.25-.31.25.19-.18.25a.3.3,0,0,0-.1.18.18.18,0,0,0,.06.13.22.22,0,0,0,.13,0,.16.16,0,0,0,.12-.1.45.45,0,0,0,.07-.18.33.33,0,0,0,0-.19l.22.06a.5.5,0,0,1,.1.31A.38.38,0,0,1,15.74,23.88Z" transform="translate(0 0)"/><path id="path1862" class="cls-116" d="M17.3,22a.64.64,0,0,1-.31.21.62.62,0,0,1-.38,0,1,1,0,0,1-.43-.28,1.63,1.63,0,0,1-.34-.37.5.5,0,0,1-.07-.37.75.75,0,0,1,.16-.35.63.63,0,0,1,.37-.25.72.72,0,0,1,.44,0,1,1,0,0,1,.44.22.73.73,0,0,1,.28.41.71.71,0,0,1,0,.43A1.13,1.13,0,0,1,17.3,22Zm-.72.81-1.8-1.53.4-.47.72.59.4.41.44.37.22.19Zm.28-1a1.4,1.4,0,0,0,.1-.16.38.38,0,0,0,0-.18.59.59,0,0,0-.13-.19.28.28,0,0,0-.19-.1h-.18a1.58,1.58,0,0,0-.16.1l-.09.15a.4.4,0,0,0,0,.19.67.67,0,0,0,.12.19.31.31,0,0,0,.22.09c.06,0,.13,0,.19,0S16.8,21.82,16.86,21.76Z" transform="translate(0 0)"/><path id="path1863" class="cls-116" d="M18.61,20.54a.94.94,0,0,1-.44.31.73.73,0,0,1-.46,0,.92.92,0,0,1-.44-.22.78.78,0,0,1-.25-.41,1.24,1.24,0,0,1,0-.47.83.83,0,0,1,.25-.43,1.08,1.08,0,0,1,.4-.28.62.62,0,0,1,.44,0,.86.86,0,0,1,.44.25s0,0,.06.06l.06.06-.93,1-.22-.22.72-.75-.1.22a.26.26,0,0,0-.18-.09.17.17,0,0,0-.19,0,.76.76,0,0,0-.16.09.26.26,0,0,0-.09.16V20a.67.67,0,0,0,.12.19l.07.06a.68.68,0,0,0,.18.13c.07,0,.13,0,.22,0a.72.72,0,0,0,.19-.13.55.55,0,0,0,.12-.19.44.44,0,0,0,0-.21h.47a.8.8,0,0,1-.06.37C18.8,20.29,18.73,20.42,18.61,20.54Z" transform="translate(0 0)"/><path id="path1864" class="cls-116" d="M19.33,19.73l-1.69-1.68.44-.44,1.68,1.69Z" transform="translate(0 0)"/><path id="path1865" class="cls-116" d="M20.67,18.49a2.33,2.33,0,0,1-.47.28.64.64,0,0,1-.47,0,.9.9,0,0,1-.4-.25.83.83,0,0,1-.22-.41.85.85,0,0,1,0-.47,1.21,1.21,0,0,1,.28-.4,1,1,0,0,1,.41-.25,1.19,1.19,0,0,1,.46,0,.84.84,0,0,1,.44.28s0,0,.06.06l.06.06-1,.94-.22-.22.78-.72-.1.22a.53.53,0,0,0-.15-.12.21.21,0,0,0-.19,0,.65.65,0,0,0-.19.09c-.06.06-.09.09-.09.16a.19.19,0,0,0,0,.18l.09.19.07.06a.51.51,0,0,0,.18.13.28.28,0,0,0,.22,0,1.12,1.12,0,0,0,.22-.13A.63.63,0,0,0,20.6,18a1.14,1.14,0,0,0,.07-.22l.46,0a.84.84,0,0,1-.09.37A4.06,4.06,0,0,0,20.67,18.49Z" transform="translate(0 0)"/><path id="path1866" class="cls-116" d="M22.13,17.21a1.14,1.14,0,0,1-.47.25,1.19,1.19,0,0,1-.46,0,1,1,0,0,1-.41-.28.65.65,0,0,1-.19-.44.78.78,0,0,1,.07-.47.89.89,0,0,1,.31-.4,1,1,0,0,1,.47-.25.82.82,0,0,1,.46.06l-.18.5c-.1,0-.16-.06-.22,0a.28.28,0,0,0-.19.09.29.29,0,0,0-.12.16.19.19,0,0,0,0,.18c0,.07.06.13.09.19a.9.9,0,0,0,.19.16.38.38,0,0,0,.18,0,.24.24,0,0,0,.19-.1.32.32,0,0,0,.13-.15.28.28,0,0,0,0-.22l.5-.12a.61.61,0,0,1,0,.46A3.71,3.71,0,0,1,22.13,17.21Z" transform="translate(0 0)"/><path id="path1867" class="cls-116" d="M22.85,16.55l-1.09-1.34.47-.37,1.09,1.34Zm-1-1.68a.49.49,0,0,1-.28.09.31.31,0,0,1-.28-.37c0-.09.06-.16.16-.25a.48.48,0,0,1,.25-.09.31.31,0,0,1,.28.37A.23.23,0,0,1,21.88,14.87Z" transform="translate(0 0)"/><path id="path1868" class="cls-116" d="M24.35,13.25a.6.6,0,0,1,.34-.16.46.46,0,0,1,.34.06,1,1,0,0,1,.34.32l.6.81-.5.34-.53-.72a.58.58,0,0,0-.22-.18c-.06,0-.13,0-.22,0s-.09.06-.09.12a.15.15,0,0,0,0,.16.26.26,0,0,0,.09.18l.5.69-.5.34L24,14.53a.48.48,0,0,0-.22-.19c-.06,0-.12,0-.21,0s-.1.06-.1.13a.14.14,0,0,0,0,.15.26.26,0,0,0,.1.19l.49.68-.49.35-1-1.41.47-.34.28.41-.19,0a.67.67,0,0,1,.31-.66,1.13,1.13,0,0,1,.41-.16.67.67,0,0,1,.4.16l-.19.09a.71.71,0,0,1,0-.43A2.92,2.92,0,0,1,24.35,13.25Z" transform="translate(0 0)"/><path id="path1869" class="cls-116" d="M27,13.62a.9.9,0,0,1-.5.19.66.66,0,0,1-.47-.09.81.81,0,0,1-.34-.32,1.21,1.21,0,0,1-.16-.46.57.57,0,0,1,.12-.44.88.88,0,0,1,.35-.34.76.76,0,0,1,.43-.16.56.56,0,0,1,.44.09,1,1,0,0,1,.37.35s0,0,0,.06a.1.1,0,0,0,0,.06l-1.16.72L26,13l.87-.56-.16.18a.36.36,0,0,0-.15-.15.22.22,0,0,0-.19,0,.52.52,0,0,0-.19.06.29.29,0,0,0-.12.16.38.38,0,0,0,0,.18.42.42,0,0,0,.06.19l.06.06a.41.41,0,0,0,.16.16.47.47,0,0,0,.22,0,.37.37,0,0,0,.22-.09A.46.46,0,0,0,26.9,13l.1-.19.43.13a.7.7,0,0,1-.15.34A.55.55,0,0,1,27,13.62Z" transform="translate(0 0)"/><path id="path1870" class="cls-116" d="M28,11a2.44,2.44,0,0,1,.35-.12.67.67,0,0,1,.34.09.86.86,0,0,1,.31.34l.5.88-.53.31-.44-.78c-.06-.09-.12-.19-.18-.19a.28.28,0,0,0-.22,0,.24.24,0,0,0-.13.13.4.4,0,0,0,0,.19.56.56,0,0,0,.06.21l.41.72-.53.31-.84-1.49.5-.28.25.43-.16-.06a.65.65,0,0,1,.09-.37A.44.44,0,0,1,28,11Z" transform="translate(0 0)"/><path id="path1871" class="cls-116" d="M30.46,11.66a.88.88,0,0,1-.53.09.66.66,0,0,1-.41-.34l-.69-1.31.53-.28.69,1.31c0,.06.06.09.12.09s.1,0,.13,0,.12-.06.12-.12l.35.31a.58.58,0,0,1-.13.15ZM29,11l-.22-.4L29.93,10l.21.4Z" transform="translate(0 0)"/><path id="path1872" class="cls-116" d="M31.7,11a.91.91,0,0,1-.5.13.9.9,0,0,1-.43-.13.81.81,0,0,1-.31-.37,1.14,1.14,0,0,1-.1-.47,1.11,1.11,0,0,1,.19-.43.94.94,0,0,1,.4-.31,1,1,0,0,1,.5-.13.94.94,0,0,1,.44.13.87.87,0,0,1,.31.37,1.31,1.31,0,0,1,.09.47.78.78,0,0,1-.18.43A1,1,0,0,1,31.7,11Zm-.22-.43a.26.26,0,0,0,.16-.13.43.43,0,0,0,.06-.18.3.3,0,0,0-.06-.22.7.7,0,0,0-.13-.19.43.43,0,0,0-.18-.06.42.42,0,0,0-.19,0A.27.27,0,0,0,31,10a.34.34,0,0,0-.07.18.28.28,0,0,0,.07.22c0,.09.09.12.15.19a.47.47,0,0,0,.19.06S31.42,10.63,31.48,10.6Z" transform="translate(0 0)"/></g><g id="Layer1010"><path id="path1873" class="cls-116" d="M34.63,9.82a1.31,1.31,0,0,1-.5.09,1,1,0,0,1-.43-.09,1.38,1.38,0,0,1-.38-.25,1.22,1.22,0,0,1-.25-.41A1.25,1.25,0,0,1,33,8.7a1,1,0,0,1,.09-.44,1.8,1.8,0,0,1,.28-.37,1.33,1.33,0,0,1,.44-.25,1.58,1.58,0,0,1,.56-.1,1,1,0,0,1,.5.16l-.25.5a.53.53,0,0,0-.28-.1.68.68,0,0,0-.28,0,.52.52,0,0,0-.22.12.67.67,0,0,0-.12.19.61.61,0,0,0,0,.25.66.66,0,0,0,.06.25,1.3,1.3,0,0,0,.12.21.85.85,0,0,0,.19.16.6.6,0,0,0,.22.06.82.82,0,0,0,.25-.06.67.67,0,0,0,.25-.16.57.57,0,0,0,.15-.28l.5.19a1.22,1.22,0,0,1-.28.44A2.48,2.48,0,0,1,34.63,9.82Z" transform="translate(0 0)"/><path id="path1874" class="cls-116" d="M36.66,9l-.1-.31-.06-.06-.18-.57a.36.36,0,0,0-.16-.18.44.44,0,0,0-.28,0,.52.52,0,0,0-.22.12.83.83,0,0,0-.15.19l-.32-.31a.76.76,0,0,1,.28-.25l.38-.19a1.08,1.08,0,0,1,.68,0,.74.74,0,0,1,.41.5l.31.9Zm-.47.19a.69.69,0,0,1-.34,0,.48.48,0,0,1-.28-.13.56.56,0,0,1-.16-.21.48.48,0,0,1,0-.29.49.49,0,0,1,.19-.24A.88.88,0,0,1,36,8.2l.38-.13.09.32-.31.09c-.09,0-.16.06-.19.12a.11.11,0,0,0,0,.13c0,.06.06.09.1.09s.09,0,.18,0a.57.57,0,0,0,.16-.09.36.36,0,0,0,.06-.19l.16.19a.48.48,0,0,1-.1.31A1.11,1.11,0,0,1,36.19,9.23Z" transform="translate(0 0)"/><path id="path1875" class="cls-116" d="M38.25,8.57a.79.79,0,0,1-.53,0,.58.58,0,0,1-.31-.43L37,6.7l.59-.15L38,8a.41.41,0,0,0,.09.12.11.11,0,0,0,.13,0A.66.66,0,0,0,38.37,8l.25.37a.27.27,0,0,1-.15.13A.46.46,0,0,1,38.25,8.57ZM37,7.67l-.12-.44,1.21-.34.13.44Z" transform="translate(0 0)"/><path id="path1876" class="cls-116" d="M39.62,8.23a1.18,1.18,0,0,1-.56,0A1.08,1.08,0,0,1,38.62,8a1.28,1.28,0,0,1-.25-.4,1.24,1.24,0,0,1,0-.47.85.85,0,0,1,.25-.41,1.19,1.19,0,0,1,.44-.21.94.94,0,0,1,.47,0,.74.74,0,0,1,.4.21,1,1,0,0,1,.25.44v.13l-1.34.34-.09-.31,1-.25-.19.15-.09-.18a.18.18,0,0,0-.16-.1.21.21,0,0,0-.19,0l-.18.1a.44.44,0,0,0-.1.15v.22l0,.09a.46.46,0,0,0,.1.19.26.26,0,0,0,.18.09c.07,0,.16,0,.25,0a1.23,1.23,0,0,0,.22-.09c.06,0,.09-.09.16-.16l.4.25A.8.8,0,0,1,40,8.1S39.78,8.17,39.62,8.23Z" transform="translate(0 0)"/><path id="path1877" class="cls-116" d="M41.61,8.39a2.37,2.37,0,0,1-.46,0,.8.8,0,0,1-.41-.1l.13-.46.28.09h.31c.15,0,.28-.09.31-.19a.37.37,0,0,0,0-.31l0-.19-.06-.46-.1-.47L41.55,6l.56-.13.28,1.37a.9.9,0,0,1-.12.78A1.12,1.12,0,0,1,41.61,8.39Zm-.24-.69a.73.73,0,0,1-.44,0,1,1,0,0,1-.38-.22A.82.82,0,0,1,40.37,7a.81.81,0,0,1,0-.46.84.84,0,0,1,.25-.35,1,1,0,0,1,.4-.18.8.8,0,0,1,.38,0,.48.48,0,0,1,.28.22,3.81,3.81,0,0,1,.19.43,1.23,1.23,0,0,1,0,.47.61.61,0,0,1-.19.31A.59.59,0,0,1,41.37,7.7Zm0-.5a.26.26,0,0,0,.18-.09.17.17,0,0,0,.1-.16.21.21,0,0,0,0-.19.24.24,0,0,0-.1-.18.65.65,0,0,0-.15-.1.21.21,0,0,0-.19,0,.27.27,0,0,0-.19.1.16.16,0,0,0-.09.15.21.21,0,0,0,0,.19.19.19,0,0,0,.09.16.76.76,0,0,0,.16.09A.4.4,0,0,0,41.4,7.2Z" transform="translate(0 0)"/><path id="path1878" class="cls-116" d="M43.64,7.42a1,1,0,0,1-.53,0,1.8,1.8,0,0,1-.4-.25,1,1,0,0,1-.19-.44.79.79,0,0,1,.06-.47.87.87,0,0,1,.28-.37,1.11,1.11,0,0,1,.47-.19,1,1,0,0,1,.53,0,.9.9,0,0,1,.37.25,1,1,0,0,1,.19.44.79.79,0,0,1-.06.47.87.87,0,0,1-.28.37A.78.78,0,0,1,43.64,7.42Zm-.09-.5a.43.43,0,0,0,.18-.06.17.17,0,0,0,.1-.16.28.28,0,0,0,0-.22.25.25,0,0,0-.1-.21.27.27,0,0,0-.15-.13.42.42,0,0,0-.19,0,.52.52,0,0,0-.19.06.18.18,0,0,0-.09.16.53.53,0,0,0,0,.22.27.27,0,0,0,.09.21.29.29,0,0,0,.16.13A.29.29,0,0,0,43.55,6.92Z" transform="translate(0 0)"/><path id="path1879" class="cls-116" d="M44.79,7.2l-.18-1.71.56-.07.06.5-.09-.12a.42.42,0,0,1,.22-.31,1,1,0,0,1,.4-.16l.06.53H45.7a.35.35,0,0,0-.34.47l.09.78Z" transform="translate(0 0)"/><path id="path1880" class="cls-116" d="M46.13,7.08,46,5.36l.59-.06L46.73,7Zm.13-1.94A.42.42,0,0,1,46,5.08a.32.32,0,0,1-.13-.22.47.47,0,0,1,.1-.25.58.58,0,0,1,.25-.12.45.45,0,0,1,.28.06.32.32,0,0,1,.12.22.37.37,0,0,1-.09.25C46.48,5.08,46.38,5.11,46.26,5.14Z" transform="translate(0 0)"/><path id="path1881" class="cls-116" d="M47,7l0-.34.91-1.15.12.18-1.06.07,0-.44,1.53-.09,0,.34-.9,1.18-.13-.18,1.09-.07,0,.47Z" transform="translate(0 0)"/><path id="path1882" class="cls-116" d="M49.81,6.89V6.58l0-.1V5.89a.31.31,0,0,0-.09-.22c-.06-.06-.16-.06-.28-.06s-.16,0-.25,0a.41.41,0,0,0-.22.13l-.22-.41a1.3,1.3,0,0,1,.34-.15,1.53,1.53,0,0,1,.41-.07,1,1,0,0,1,.65.19.74.74,0,0,1,.25.59v1Zm-.53,0a1.15,1.15,0,0,1-.34-.06.44.44,0,0,1-.22-.19.77.77,0,0,1-.09-.28.94.94,0,0,1,.06-.28,1.15,1.15,0,0,1,.25-.19,1.66,1.66,0,0,1,.44-.06h.4v.31h-.31a.48.48,0,0,0-.22.06.2.2,0,0,0-.06.13.16.16,0,0,0,.06.12s.1,0,.16,0a.43.43,0,0,0,.18-.06.27.27,0,0,0,.13-.15l.09.21a.48.48,0,0,1-.18.29A.42.42,0,0,1,49.28,6.92Z" transform="translate(0 0)"/><path id="path1883" class="cls-116" d="M51.43,7A1,1,0,0,1,51,6.83a1,1,0,0,1-.31-.32.92.92,0,0,1-.1-.46.93.93,0,0,1,.13-.47A1.3,1.3,0,0,1,51,5.27a1,1,0,0,1,.44-.1.67.67,0,0,1,.37.1.47.47,0,0,1,.22.31,1.25,1.25,0,0,1,.06.5,1.15,1.15,0,0,1-.09.5.62.62,0,0,1-.25.28A.54.54,0,0,1,51.43,7Zm.16-.5a.44.44,0,0,0,.19,0,.23.23,0,0,0,.12-.12A.51.51,0,0,0,52,6.08a.49.49,0,0,0,0-.22.38.38,0,0,0-.12-.16.47.47,0,0,0-.19-.06.44.44,0,0,0-.19,0,.25.25,0,0,0-.12.13.54.54,0,0,0,0,.43.29.29,0,0,0,.12.16A.25.25,0,0,0,51.59,6.45Zm.34.47V6.61l0-.56V5.49l0-.94.59,0L52.49,7Z" transform="translate(0 0)"/><path id="path1884" class="cls-116" d="M53.68,7.08a1.63,1.63,0,0,1-.5-.16.76.76,0,0,1-.31-.34,1.32,1.32,0,0,1-.1-.47.71.71,0,0,1,.16-.44,1,1,0,0,1,.37-.28.94.94,0,0,1,.5-.06,1.18,1.18,0,0,1,.5.16.61.61,0,0,1,.31.34,1,1,0,0,1,.1.47.85.85,0,0,1-.16.46.8.8,0,0,1-.37.28C54.05,7,53.9,7.08,53.68,7.08Zm.06-.5a.42.42,0,0,0,.19,0,.87.87,0,0,0,.15-.13.44.44,0,0,0,.07-.22.35.35,0,0,0,0-.21A.29.29,0,0,0,54,5.83a.42.42,0,0,0-.19-.06.38.38,0,0,0-.18,0,.45.45,0,0,0-.16.12.51.51,0,0,0-.06.22.49.49,0,0,0,0,.22.3.3,0,0,0,.12.15A.4.4,0,0,0,53.74,6.58Z" transform="translate(0 0)"/></g><g id="Layer1011"><path id="path1885" class="cls-116" d="M56.8,7.45a.57.57,0,0,1-.35-.16A.61.61,0,0,1,56.27,7a1,1,0,0,1,0-.5A1.58,1.58,0,0,1,56.42,6a.43.43,0,0,1,.28-.25.57.57,0,0,1,.41,0,1.14,1.14,0,0,1,.4.19.88.88,0,0,1,.25.34.94.94,0,0,1,0,.5.81.81,0,0,1-.18.44.7.7,0,0,1-.35.25A2.37,2.37,0,0,1,56.8,7.45Zm-1.16.41L56,5.55l.56.09,0,.28-.09.56L56.36,7,56.23,8ZM56.73,7a.4.4,0,0,0,.19,0,.74.74,0,0,0,.16-.12c0-.07.06-.13.09-.22V6.36a.76.76,0,0,0-.09-.16.39.39,0,0,0-.19-.06.42.42,0,0,0-.19,0,.44.44,0,0,0-.15.13.82.82,0,0,0-.1.21v.22a.4.4,0,0,0,.1.16C56.61,6.92,56.67,6.92,56.73,7Z" transform="translate(0 0)"/><path id="path1886" class="cls-116" d="M58.73,7.79a1.09,1.09,0,0,1-.5-.22A.91.91,0,0,1,58,7.2a.84.84,0,0,1,0-.47.78.78,0,0,1,.22-.43.83.83,0,0,1,.4-.25.94.94,0,0,1,.5,0,1.14,1.14,0,0,1,.44.18,1,1,0,0,1,.28.38.92.92,0,0,1,0,.5s0,0,0,.06,0,.06,0,.06L58.39,7l.06-.31,1,.22-.25,0a.28.28,0,0,0,0-.22,1.12,1.12,0,0,0-.1-.16A1,1,0,0,0,59,6.42h-.19l-.16.09-.09.19,0,.1a.49.49,0,0,0,0,.21.29.29,0,0,0,.12.16l.22.09a.28.28,0,0,0,.22,0,.52.52,0,0,0,.19-.06l.25.37a1,1,0,0,1-.35.16A.47.47,0,0,1,58.73,7.79Z" transform="translate(0 0)"/><path id="path1887" class="cls-116" d="M59.76,8l.53-2.31.59.13-.53,2.3Z" transform="translate(0 0)"/><path id="path1888" class="cls-116" d="M61.69,8.48l.09-.31,0-.1.16-.56a.26.26,0,0,0,0-.25.4.4,0,0,0-.25-.15.74.74,0,0,0-.25,0,.71.71,0,0,0-.25.06L61,6.7a1.67,1.67,0,0,1,.38-.06,1.6,1.6,0,0,1,.4.06,1.06,1.06,0,0,1,.6.34.8.8,0,0,1,.06.66l-.25.93Zm-.5-.13a.75.75,0,0,1-.31-.15A.45.45,0,0,1,60.72,8a.45.45,0,0,1,0-.28.63.63,0,0,1,.16-.25.38.38,0,0,1,.28-.09,1.22,1.22,0,0,1,.44.06l.4.09-.09.31L61.6,7.7a.28.28,0,0,0-.22,0l-.1.09c0,.07,0,.1,0,.13a.66.66,0,0,0,.15.09.21.21,0,0,0,.19,0,.3.3,0,0,0,.15-.12l0,.25a.61.61,0,0,1-.25.21A.53.53,0,0,1,61.19,8.35Z" transform="translate(0 0)"/></g><g id="Layer1012"><path id="path1889" class="cls-116" d="M64,9.2l-.19-2.44L64.5,7l.12,2.09L64.25,9l1.4-1.56.59.22-1.62,1.8Z" transform="translate(0 0)"/><path id="path1890" class="cls-116" d="M65.59,9.73l.62-1.63.56.22-.62,1.62Zm1-1.66a.31.31,0,0,1-.22-.43.3.3,0,0,1,.19-.19.45.45,0,0,1,.28,0,.3.3,0,0,1,.22.19.25.25,0,0,1,0,.25.27.27,0,0,1-.19.18A.45.45,0,0,1,66.55,8.07Z" transform="translate(0 0)"/><path id="path1891" class="cls-116" d="M67,11a1.55,1.55,0,0,1-.41-.25.83.83,0,0,1-.28-.31l.38-.31a.42.42,0,0,0,.18.22,1.55,1.55,0,0,0,.28.15c.16.07.28.1.38,0a.55.55,0,0,0,.22-.25l.09-.19L68,9.66l.18-.43L68.33,9l.53.21-.56,1.31a.85.85,0,0,1-.53.56A.9.9,0,0,1,67,11Zm.18-.71A1.3,1.3,0,0,1,66.8,10a.68.68,0,0,1-.15-.38.65.65,0,0,1,.06-.43A.82.82,0,0,1,67,8.85a.92.92,0,0,1,.4-.15,1.12,1.12,0,0,1,.44.06.64.64,0,0,1,.44.56,1,1,0,0,1-.13.47.86.86,0,0,1-.25.4.47.47,0,0,1-.31.16A1.14,1.14,0,0,1,67.14,10.29Zm.35-.41a.38.38,0,0,0,.18,0,.42.42,0,0,0,.19-.06A.3.3,0,0,0,68,9.69a.38.38,0,0,0,0-.18A.26.26,0,0,0,68,9.35a.38.38,0,0,0-.16-.12.42.42,0,0,0-.19,0,.43.43,0,0,0-.18.06.27.27,0,0,0-.13.15.44.44,0,0,0,0,.19.26.26,0,0,0,.06.16A.33.33,0,0,0,67.49,9.88Z" transform="translate(0 0)"/><path id="path1892" class="cls-116" d="M68.42,10.94l.75-1.56.56.25L69,11.19Zm1.09-1.59a.46.46,0,0,1-.18-.19.33.33,0,0,1,0-.24.23.23,0,0,1,.18-.16.31.31,0,0,1,.28,0A1.08,1.08,0,0,1,70,9a.36.36,0,0,1,0,.25.27.27,0,0,1-.18.18C69.73,9.38,69.64,9.38,69.51,9.35Z" transform="translate(0 0)"/><path id="path1893" class="cls-116" d="M69.26,11.35l1.06-2.12.53.28-1.06,2.12Z" transform="translate(0 0)"/><path id="path1894" class="cls-116" d="M71,12.25,71.2,12v-.09l.28-.53a.37.37,0,0,0,0-.25.31.31,0,0,0-.22-.19L71,10.82a.36.36,0,0,0-.25,0l0-.47a1.63,1.63,0,0,1,.38,0,1.48,1.48,0,0,1,.37.16A.84.84,0,0,1,72,11a.89.89,0,0,1-.09.66l-.47.84ZM70.57,12a1.09,1.09,0,0,1-.28-.22.56.56,0,0,1,0-.56.92.92,0,0,1,.22-.22.53.53,0,0,1,.31,0,1.43,1.43,0,0,1,.41.16l.37.19-.15.28-.29-.16a.32.32,0,0,0-.21-.06.13.13,0,0,0-.13.09.15.15,0,0,0,0,.16.22.22,0,0,0,.13.12.38.38,0,0,0,.18,0,.42.42,0,0,0,.19-.06l0,.25a.67.67,0,0,1-.28.16A.61.61,0,0,1,70.57,12Zm.56-1.93.6-.22.46.25.13.62L72,10.57,71.76,10l.31.15-.59.13Z" transform="translate(0 0)"/><path id="path1895" class="cls-116" d="M73.66,11.75a.76.76,0,0,1,.28.25.64.64,0,0,1,.09.34,1,1,0,0,1-.15.44l-.5.84-.53-.31.47-.75a.32.32,0,0,0,.06-.28c0-.06-.06-.12-.13-.19A.51.51,0,0,0,73.1,12a.24.24,0,0,0-.19.06.37.37,0,0,0-.15.19l-.44.72-.53-.31.9-1.47.5.31-.25.41,0-.19a.88.88,0,0,1,.38-.09A.58.58,0,0,1,73.66,11.75Z" transform="translate(0 0)"/><path id="path1896" class="cls-116" d="M74.35,14.31a1.06,1.06,0,0,1-.38-.38.88.88,0,0,1-.12-.46A.93.93,0,0,1,74,13a.72.72,0,0,1,.38-.31.75.75,0,0,1,.46-.07,1.91,1.91,0,0,1,.5.19,1.35,1.35,0,0,1,.35.38.82.82,0,0,1,.06.46l-.53-.06a.51.51,0,0,0,0-.22.32.32,0,0,0-.13-.15.45.45,0,0,0-.18-.07.31.31,0,0,0-.19,0,.39.39,0,0,0-.16.15.35.35,0,0,0-.09.22.44.44,0,0,0,0,.19.53.53,0,0,0,.12.15.56.56,0,0,0,.19.07A.63.63,0,0,0,75,13.9l.25.47a.75.75,0,0,1-.44.12A.69.69,0,0,1,74.35,14.31Z" transform="translate(0 0)"/><path id="path1897" class="cls-116" d="M75.16,14.84l1-1.4.5.34-1,1.4Zm1.37-1.37a.33.33,0,0,1-.16-.22.25.25,0,0,1,.06-.25c.07-.06.13-.13.22-.13a.5.5,0,0,1,.28.1.3.3,0,0,1,.16.22c0,.09,0,.15-.06.25a.35.35,0,0,1-.22.12A.49.49,0,0,1,76.53,13.47Z" transform="translate(0 0)"/><path id="path1898" class="cls-116" d="M76.75,16l.18-.25,0-.09.38-.47A.21.21,0,0,0,77.4,15c0-.06-.06-.15-.19-.21a.41.41,0,0,0-.22-.13.66.66,0,0,0-.24,0l.09-.44a.74.74,0,0,1,.37.1,1.15,1.15,0,0,1,.35.22,1,1,0,0,1,.4.56.85.85,0,0,1-.19.62l-.59.75Zm-.44-.28a.9.9,0,0,1-.25-.28.48.48,0,0,1-.06-.28.37.37,0,0,1,.09-.25.33.33,0,0,1,.22-.15.41.41,0,0,1,.31,0A.74.74,0,0,1,77,15l.32.25-.19.25-.25-.18a.42.42,0,0,0-.19-.1.16.16,0,0,0-.12.06.22.22,0,0,0,0,.13c0,.06,0,.09.09.12a.49.49,0,0,0,.19.07.2.2,0,0,0,.18-.07l-.06.22a.52.52,0,0,1-.31.1A.34.34,0,0,1,76.31,15.74Z" transform="translate(0 0)"/></g><g id="Layer1013"><path id="path1899" class="cls-116" d="M78.68,17.67a1.64,1.64,0,0,1-.34-.4,1.34,1.34,0,0,1-.19-.41l.47-.21a2,2,0,0,0,.15.34,1.26,1.26,0,0,0,.25.31,1.07,1.07,0,0,0,.19.13.23.23,0,0,0,.12,0l.1,0a.22.22,0,0,0,0-.13.5.5,0,0,0-.1-.19c0-.06-.09-.12-.15-.21s-.1-.16-.16-.22a.45.45,0,0,1-.09-.25.35.35,0,0,1,0-.25.41.41,0,0,1,.15-.28.63.63,0,0,1,.32-.19.72.72,0,0,1,.43,0,1.94,1.94,0,0,1,.47.28,1.28,1.28,0,0,1,.28.31,1.37,1.37,0,0,1,.19.35l-.47.22a.88.88,0,0,0-.16-.32,1.3,1.3,0,0,0-.18-.21.54.54,0,0,0-.19-.13.23.23,0,0,0-.12,0,.15.15,0,0,0-.1.06.21.21,0,0,0,0,.13.26.26,0,0,0,.09.18c0,.07.1.13.16.22s.09.16.16.22a1,1,0,0,1,.12.25.36.36,0,0,1,0,.25.44.44,0,0,1-.15.25.8.8,0,0,1-.32.19.56.56,0,0,1-.4,0A.69.69,0,0,1,78.68,17.67Z" transform="translate(0 0)"/><path id="path1900" class="cls-116" d="M80.33,19.14l.22-.22,0-.09.41-.44a.33.33,0,0,0,.09-.22.46.46,0,0,0-.16-.25,1,1,0,0,0-.22-.15.76.76,0,0,0-.21-.06l.12-.44a1.38,1.38,0,0,1,.34.12,3.79,3.79,0,0,1,.35.25,1.23,1.23,0,0,1,.34.6.72.72,0,0,1-.25.59l-.65.68ZM80,18.83a1.67,1.67,0,0,1-.22-.28.92.92,0,0,1,0-.28.58.58,0,0,1,.12-.25.72.72,0,0,1,.25-.16.58.58,0,0,1,.31,0,1.52,1.52,0,0,1,.35.25l.28.28-.22.22-.25-.22a.28.28,0,0,0-.19-.09c-.06,0-.09,0-.12.06s-.07.1,0,.13,0,.09.09.15l.16.1a.3.3,0,0,0,.18,0l-.09.22a.36.36,0,0,1-.31.06A.93.93,0,0,1,80,18.83Z" transform="translate(0 0)"/><path id="path1901" class="cls-116" d="M83,19.36a.87.87,0,0,1,.19.31.77.77,0,0,1,0,.37.93.93,0,0,1-.25.38l-.72.68-.4-.43.65-.63a.53.53,0,0,0,.16-.25.29.29,0,0,0-.1-.21.23.23,0,0,0-.15-.1.21.21,0,0,0-.19,0,.64.64,0,0,0-.19.13l-.59.56-.4-.44,1.24-1.18.41.4-.34.35,0-.19a.9.9,0,0,1,.4,0A2.88,2.88,0,0,0,83,19.36Z" transform="translate(0 0)"/><path id="path1902" class="cls-116" d="M82.42,21.32l1.31-1.15.4.47-1.31,1.15Zm1.65-1A.4.4,0,0,1,84,20a.27.27,0,0,1,.09-.21.23.23,0,0,1,.25-.07.41.41,0,0,1,.25.13c.06.09.12.15.12.25a.31.31,0,0,1-.09.22.35.35,0,0,1-.25.09A.55.55,0,0,1,84.07,20.29Z" transform="translate(0 0)"/><path id="path1903" class="cls-116" d="M83.51,22.63a.69.69,0,0,1-.22-.5.75.75,0,0,1,.25-.47l1.12-.93.38.47-1.12.93c-.07,0-.07.1-.1.13s0,.09,0,.12a.19.19,0,0,0,.16.1l-.22.37-.19-.09A.47.47,0,0,0,83.51,22.63Zm.34-1.53.35-.28.81,1-.35.28Z" transform="translate(0 0)"/><path id="path1904" class="cls-116" d="M84.54,23.88l.25-.19,0-.09.47-.38a.3.3,0,0,0,.12-.22.46.46,0,0,0-.12-.28l-.19-.18a.36.36,0,0,0-.22-.1l.19-.4a.84.84,0,0,1,.34.19.93.93,0,0,1,.28.28.91.91,0,0,1,.25.62.78.78,0,0,1-.34.56l-.75.59Zm-.34-.38a.77.77,0,0,1-.16-.31.31.31,0,0,1,0-.28.57.57,0,0,1,.16-.22.49.49,0,0,1,.28-.09.54.54,0,0,1,.28.09,1.13,1.13,0,0,1,.31.31l.25.32-.25.18-.19-.25c-.06-.09-.12-.12-.15-.12s-.1,0-.13,0a.16.16,0,0,0-.06.13c0,.06,0,.09.06.15s.1.09.16.13a.21.21,0,0,0,.19,0l-.13.18a.32.32,0,0,1-.31,0A1.16,1.16,0,0,1,84.2,23.5Zm1.52-1.24.66,0,.37.47L86,22.57Z" transform="translate(0 0)"/><path id="path1905" class="cls-116" d="M85.07,24.59l1.4-1,.34.46-.4.29.06-.16a.56.56,0,0,1,.38,0,1,1,0,0,1,.31.28l-.44.31s0,0,0-.06,0,0,0-.06a.46.46,0,0,0-.25-.19.4.4,0,0,0-.34.09l-.66.47Z" transform="translate(0 0)"/><path id="path1906" class="cls-116" d="M85.85,25.69l1.43-1,.34.5-1.43,1Zm1.74-.85a.32.32,0,0,1-.06-.28.28.28,0,0,1,.13-.21.22.22,0,0,1,.25,0,.69.69,0,0,1,.21.16.3.3,0,0,1,.07.28.34.34,0,0,1-.13.22.37.37,0,0,1-.25.06A.6.6,0,0,1,87.59,24.84Z" transform="translate(0 0)"/><path id="path1907" class="cls-116" d="M86.94,27.34l.28-.16,0-.09.5-.31a.64.64,0,0,0,.16-.19.39.39,0,0,0-.1-.28.83.83,0,0,0-.15-.19.59.59,0,0,0-.22-.12l.25-.41a2,2,0,0,1,.31.22,2.27,2.27,0,0,1,.25.31,1,1,0,0,1,.19.66.92.92,0,0,1-.38.53l-.81.5Zm-.31-.41a.69.69,0,0,1-.13-.34.89.89,0,0,1,0-.28.44.44,0,0,1,.19-.22A.51.51,0,0,1,87,26a.39.39,0,0,1,.28.12,1,1,0,0,1,.28.35l.22.34L87.5,27l-.19-.28a.35.35,0,0,0-.15-.15.1.1,0,0,0-.13,0,.16.16,0,0,0-.06.12.17.17,0,0,0,.06.16c0,.06.1.09.13.12a.38.38,0,0,0,.18,0l-.15.19a.54.54,0,0,1-.31,0A.72.72,0,0,1,86.63,26.93Z" transform="translate(0 0)"/></g></g><path id="path1908" class="cls-116" d="M61.63,85.94h0a37.9,37.9,0,0,0,15-62.59,37.05,37.05,0,0,0-25.78-11H49.56a37.09,37.09,0,0,0-26.18,11,37.86,37.86,0,0,0,15,62.59h0a3.5,3.5,0,0,0,.13-.44A37.43,37.43,0,0,1,23.72,23.69,36.62,36.62,0,0,1,49.59,12.78h1.22A36.59,36.59,0,0,1,76.28,23.69,37.35,37.35,0,0,1,61.53,85.5,4.32,4.32,0,0,0,61.63,85.94Z" transform="translate(0 0)"/></g></svg>